<?xml version="1.0" standalone="no"?>
 <!DOCTYPE svg PUBLIC "-//W3C//DTD SVG 1.1//EN" 
 "http://www.w3.org/Graphics/SVG/1.1/DTD/svg11.dtd"> 
<svg
  xmlns:svg="http://www.w3.org/2000/svg"
  xmlns="http://www.w3.org/2000/svg"
  xmlns:xlink="http://www.w3.org/1999/xlink"
  version="1.1"
  width="29.700220cm" height="21.000720cm" viewBox="0 0 116930 82680">
<title>SVG Picture created as Two_transistor_AMP-B_Cu.svg date 2021/12/28 20:43:45 </title>
  <desc>Picture generated by PCBNEW </desc>
<g style="fill:#000000; fill-opacity:1;stroke:#000000; stroke-opacity:1;
stroke-linecap:round; stroke-linejoin:round;"
 transform="translate(0 0) scale(1 1)">
</g>
<g style="fill:#000000; fill-opacity:0.0; 
stroke:#000000; stroke-width:-0.000393701; stroke-opacity:1; 
stroke-linecap:round; stroke-linejoin:round;">
</g>
<g style="fill:#000000; fill-opacity:0.0; 
stroke:#000000; stroke-width:39.3701; stroke-opacity:1; 
stroke-linecap:round; stroke-linejoin:round;">
</g>
<g style="fill:#000000; fill-opacity:0.0; 
stroke:#000000; stroke-width:59.0551; stroke-opacity:1; 
stroke-linecap:round; stroke-linejoin:round;">
<rect x="69685.9" y="65357.2" width="42519.7" height="12598.4" rx="0" />
</g>
<g style="fill:#000000; fill-opacity:0.0; 
stroke:#000000; stroke-width:39.3701; stroke-opacity:1; 
stroke-linecap:round; stroke-linejoin:round;">
</g>
<g style="fill:#000000; fill-opacity:0.0; 
stroke:#000000; stroke-width:59.0551; stroke-opacity:1; 
stroke-linecap:round; stroke-linejoin:round;">
<rect x="3937.01" y="3937.01" width="109056" height="74806" rx="0" />
</g>
<g style="fill:#000000; fill-opacity:0.0; 
stroke:#000000; stroke-width:39.3701; stroke-opacity:1; 
stroke-linecap:round; stroke-linejoin:round;">
</g>
<g style="fill:#000000; fill-opacity:0.0; 
stroke:#000000; stroke-width:59.0551; stroke-opacity:1; 
stroke-linecap:round; stroke-linejoin:round;">
<rect x="4724.41" y="4724.41" width="107481" height="73231.2" rx="0" />
</g>
<g style="fill:#000000; fill-opacity:0.0; 
stroke:#000000; stroke-width:39.3701; stroke-opacity:1; 
stroke-linecap:round; stroke-linejoin:round;">
</g>
<g style="fill:#000000; fill-opacity:0.0; 
stroke:#000000; stroke-width:59.0551; stroke-opacity:1; 
stroke-linecap:round; stroke-linejoin:round;">
<path d="M23622 4724
L23622 3937
" />
</g>
<g style="fill:#000000; fill-opacity:0.0; 
stroke:#000000; stroke-width:39.3701; stroke-opacity:1; 
stroke-linecap:round; stroke-linejoin:round;">
</g>
<g style="fill:#000000; fill-opacity:0.0; 
stroke:#000000; stroke-width:59.0551; stroke-opacity:1; 
stroke-linecap:round; stroke-linejoin:round;">
<path d="M43307 4724
L43307 3937
" />
</g>
<g style="fill:#000000; fill-opacity:0.0; 
stroke:#000000; stroke-width:39.3701; stroke-opacity:1; 
stroke-linecap:round; stroke-linejoin:round;">
</g>
<g style="fill:#000000; fill-opacity:0.0; 
stroke:#000000; stroke-width:59.0551; stroke-opacity:1; 
stroke-linecap:round; stroke-linejoin:round;">
<path d="M62992 4724
L62992 3937
" />
</g>
<g style="fill:#000000; fill-opacity:0.0; 
stroke:#000000; stroke-width:39.3701; stroke-opacity:1; 
stroke-linecap:round; stroke-linejoin:round;">
</g>
<g style="fill:#000000; fill-opacity:0.0; 
stroke:#000000; stroke-width:59.0551; stroke-opacity:1; 
stroke-linecap:round; stroke-linejoin:round;">
<path d="M82677 4724
L82677 3937
" />
</g>
<g style="fill:#000000; fill-opacity:0.0; 
stroke:#000000; stroke-width:39.3701; stroke-opacity:1; 
stroke-linecap:round; stroke-linejoin:round;">
</g>
<g style="fill:#000000; fill-opacity:0.0; 
stroke:#000000; stroke-width:59.0551; stroke-opacity:1; 
stroke-linecap:round; stroke-linejoin:round;">
<path d="M102362 4724
L102362 3937
" />
</g>
<g style="fill:#000000; fill-opacity:0.0; 
stroke:#000000; stroke-width:39.3701; stroke-opacity:1; 
stroke-linecap:round; stroke-linejoin:round;">
</g>
<g style="fill:#000000; fill-opacity:0.0; 
stroke:#000000; stroke-width:59.0551; stroke-opacity:1; 
stroke-linecap:round; stroke-linejoin:round;">
<text x="13779.5" y="4586.61"
textLength="546.494" font-size="682.415" lengthAdjust="spacingAndGlyphs"
text-anchor="start" opacity="0">1</text>
<path d="M14199 4562
L13906 4562
" />
<path d="M14052 4562
L14052 4050
L14004 4123
L13955 4172
L13906 4196
" />
</g>
<g style="fill:#000000; fill-opacity:0.0; 
stroke:#000000; stroke-width:39.3701; stroke-opacity:1; 
stroke-linecap:round; stroke-linejoin:round;">
</g>
<g style="fill:#000000; fill-opacity:0.0; 
stroke:#000000; stroke-width:59.0551; stroke-opacity:1; 
stroke-linecap:round; stroke-linejoin:round;">
<text x="33464.6" y="4586.61"
textLength="546.494" font-size="682.415" lengthAdjust="spacingAndGlyphs"
text-anchor="start" opacity="0">2</text>
<path d="M33591 4099
L33615 4074
L33664 4050
L33786 4050
L33835 4074
L33859 4099
L33884 4147
L33884 4196
L33859 4269
L33567 4562
L33884 4562
" />
</g>
<g style="fill:#000000; fill-opacity:0.0; 
stroke:#000000; stroke-width:39.3701; stroke-opacity:1; 
stroke-linecap:round; stroke-linejoin:round;">
</g>
<g style="fill:#000000; fill-opacity:0.0; 
stroke:#000000; stroke-width:59.0551; stroke-opacity:1; 
stroke-linecap:round; stroke-linejoin:round;">
<text x="53149.6" y="4586.61"
textLength="546.494" font-size="682.415" lengthAdjust="spacingAndGlyphs"
text-anchor="start" opacity="0">3</text>
<path d="M53252 4050
L53569 4050
L53398 4245
L53471 4245
L53520 4269
L53544 4294
L53569 4342
L53569 4464
L53544 4513
L53520 4537
L53471 4562
L53325 4562
L53276 4537
L53252 4513
" />
</g>
<g style="fill:#000000; fill-opacity:0.0; 
stroke:#000000; stroke-width:39.3701; stroke-opacity:1; 
stroke-linecap:round; stroke-linejoin:round;">
</g>
<g style="fill:#000000; fill-opacity:0.0; 
stroke:#000000; stroke-width:59.0551; stroke-opacity:1; 
stroke-linecap:round; stroke-linejoin:round;">
<text x="72834.6" y="4586.61"
textLength="546.494" font-size="682.415" lengthAdjust="spacingAndGlyphs"
text-anchor="start" opacity="0">4</text>
<path d="M73205 4221
L73205 4562
" />
<path d="M73083 4026
L72961 4391
L73278 4391
" />
</g>
<g style="fill:#000000; fill-opacity:0.0; 
stroke:#000000; stroke-width:39.3701; stroke-opacity:1; 
stroke-linecap:round; stroke-linejoin:round;">
</g>
<g style="fill:#000000; fill-opacity:0.0; 
stroke:#000000; stroke-width:59.0551; stroke-opacity:1; 
stroke-linecap:round; stroke-linejoin:round;">
<text x="92519.7" y="4586.61"
textLength="546.494" font-size="682.415" lengthAdjust="spacingAndGlyphs"
text-anchor="start" opacity="0">5</text>
<path d="M92914 4050
L92671 4050
L92646 4294
L92671 4269
L92719 4245
L92841 4245
L92890 4269
L92914 4294
L92939 4342
L92939 4464
L92914 4513
L92890 4537
L92841 4562
L92719 4562
L92671 4537
L92646 4513
" />
</g>
<g style="fill:#000000; fill-opacity:0.0; 
stroke:#000000; stroke-width:39.3701; stroke-opacity:1; 
stroke-linecap:round; stroke-linejoin:round;">
</g>
<g style="fill:#000000; fill-opacity:0.0; 
stroke:#000000; stroke-width:59.0551; stroke-opacity:1; 
stroke-linecap:round; stroke-linejoin:round;">
<text x="112205" y="4586.61"
textLength="546.494" font-size="682.415" lengthAdjust="spacingAndGlyphs"
text-anchor="start" opacity="0">6</text>
<path d="M112575 4050
L112477 4050
L112429 4074
L112404 4099
L112356 4172
L112331 4269
L112331 4464
L112356 4513
L112380 4537
L112429 4562
L112526 4562
L112575 4537
L112599 4513
L112624 4464
L112624 4342
L112599 4294
L112575 4269
L112526 4245
L112429 4245
L112380 4269
L112356 4294
L112331 4342
" />
</g>
<g style="fill:#000000; fill-opacity:0.0; 
stroke:#000000; stroke-width:39.3701; stroke-opacity:1; 
stroke-linecap:round; stroke-linejoin:round;">
</g>
<g style="fill:#000000; fill-opacity:0.0; 
stroke:#000000; stroke-width:59.0551; stroke-opacity:1; 
stroke-linecap:round; stroke-linejoin:round;">
<path d="M23622 77955
L23622 78742
" />
</g>
<g style="fill:#000000; fill-opacity:0.0; 
stroke:#000000; stroke-width:39.3701; stroke-opacity:1; 
stroke-linecap:round; stroke-linejoin:round;">
</g>
<g style="fill:#000000; fill-opacity:0.0; 
stroke:#000000; stroke-width:59.0551; stroke-opacity:1; 
stroke-linecap:round; stroke-linejoin:round;">
<path d="M43307 77955
L43307 78742
" />
</g>
<g style="fill:#000000; fill-opacity:0.0; 
stroke:#000000; stroke-width:39.3701; stroke-opacity:1; 
stroke-linecap:round; stroke-linejoin:round;">
</g>
<g style="fill:#000000; fill-opacity:0.0; 
stroke:#000000; stroke-width:59.0551; stroke-opacity:1; 
stroke-linecap:round; stroke-linejoin:round;">
<path d="M62992 77955
L62992 78742
" />
</g>
<g style="fill:#000000; fill-opacity:0.0; 
stroke:#000000; stroke-width:39.3701; stroke-opacity:1; 
stroke-linecap:round; stroke-linejoin:round;">
</g>
<g style="fill:#000000; fill-opacity:0.0; 
stroke:#000000; stroke-width:59.0551; stroke-opacity:1; 
stroke-linecap:round; stroke-linejoin:round;">
<path d="M82677 77955
L82677 78742
" />
</g>
<g style="fill:#000000; fill-opacity:0.0; 
stroke:#000000; stroke-width:39.3701; stroke-opacity:1; 
stroke-linecap:round; stroke-linejoin:round;">
</g>
<g style="fill:#000000; fill-opacity:0.0; 
stroke:#000000; stroke-width:59.0551; stroke-opacity:1; 
stroke-linecap:round; stroke-linejoin:round;">
<path d="M102362 77955
L102362 78742
" />
</g>
<g style="fill:#000000; fill-opacity:0.0; 
stroke:#000000; stroke-width:39.3701; stroke-opacity:1; 
stroke-linecap:round; stroke-linejoin:round;">
</g>
<g style="fill:#000000; fill-opacity:0.0; 
stroke:#000000; stroke-width:59.0551; stroke-opacity:1; 
stroke-linecap:round; stroke-linejoin:round;">
<text x="13779.5" y="78605.2"
textLength="546.494" font-size="682.415" lengthAdjust="spacingAndGlyphs"
text-anchor="start" opacity="0">1</text>
<path d="M14199 78580
L13906 78580
" />
<path d="M14052 78580
L14052 78069
L14004 78142
L13955 78190
L13906 78215
" />
</g>
<g style="fill:#000000; fill-opacity:0.0; 
stroke:#000000; stroke-width:39.3701; stroke-opacity:1; 
stroke-linecap:round; stroke-linejoin:round;">
</g>
<g style="fill:#000000; fill-opacity:0.0; 
stroke:#000000; stroke-width:59.0551; stroke-opacity:1; 
stroke-linecap:round; stroke-linejoin:round;">
<text x="33464.6" y="78605.2"
textLength="546.494" font-size="682.415" lengthAdjust="spacingAndGlyphs"
text-anchor="start" opacity="0">2</text>
<path d="M33591 78117
L33615 78093
L33664 78069
L33786 78069
L33835 78093
L33859 78117
L33884 78166
L33884 78215
L33859 78288
L33567 78580
L33884 78580
" />
</g>
<g style="fill:#000000; fill-opacity:0.0; 
stroke:#000000; stroke-width:39.3701; stroke-opacity:1; 
stroke-linecap:round; stroke-linejoin:round;">
</g>
<g style="fill:#000000; fill-opacity:0.0; 
stroke:#000000; stroke-width:59.0551; stroke-opacity:1; 
stroke-linecap:round; stroke-linejoin:round;">
<text x="53149.6" y="78605.2"
textLength="546.494" font-size="682.415" lengthAdjust="spacingAndGlyphs"
text-anchor="start" opacity="0">3</text>
<path d="M53252 78069
L53569 78069
L53398 78263
L53471 78263
L53520 78288
L53544 78312
L53569 78361
L53569 78483
L53544 78532
L53520 78556
L53471 78580
L53325 78580
L53276 78556
L53252 78532
" />
</g>
<g style="fill:#000000; fill-opacity:0.0; 
stroke:#000000; stroke-width:39.3701; stroke-opacity:1; 
stroke-linecap:round; stroke-linejoin:round;">
</g>
<g style="fill:#000000; fill-opacity:0.0; 
stroke:#000000; stroke-width:59.0551; stroke-opacity:1; 
stroke-linecap:round; stroke-linejoin:round;">
<text x="72834.6" y="78605.2"
textLength="546.494" font-size="682.415" lengthAdjust="spacingAndGlyphs"
text-anchor="start" opacity="0">4</text>
<path d="M73205 78239
L73205 78580
" />
<path d="M73083 78044
L72961 78410
L73278 78410
" />
</g>
<g style="fill:#000000; fill-opacity:0.0; 
stroke:#000000; stroke-width:39.3701; stroke-opacity:1; 
stroke-linecap:round; stroke-linejoin:round;">
</g>
<g style="fill:#000000; fill-opacity:0.0; 
stroke:#000000; stroke-width:59.0551; stroke-opacity:1; 
stroke-linecap:round; stroke-linejoin:round;">
<text x="92519.7" y="78605.2"
textLength="546.494" font-size="682.415" lengthAdjust="spacingAndGlyphs"
text-anchor="start" opacity="0">5</text>
<path d="M92914 78069
L92671 78069
L92646 78312
L92671 78288
L92719 78263
L92841 78263
L92890 78288
L92914 78312
L92939 78361
L92939 78483
L92914 78532
L92890 78556
L92841 78580
L92719 78580
L92671 78556
L92646 78532
" />
</g>
<g style="fill:#000000; fill-opacity:0.0; 
stroke:#000000; stroke-width:39.3701; stroke-opacity:1; 
stroke-linecap:round; stroke-linejoin:round;">
</g>
<g style="fill:#000000; fill-opacity:0.0; 
stroke:#000000; stroke-width:59.0551; stroke-opacity:1; 
stroke-linecap:round; stroke-linejoin:round;">
<text x="112205" y="78605.2"
textLength="546.494" font-size="682.415" lengthAdjust="spacingAndGlyphs"
text-anchor="start" opacity="0">6</text>
<path d="M112575 78069
L112477 78069
L112429 78093
L112404 78117
L112356 78190
L112331 78288
L112331 78483
L112356 78532
L112380 78556
L112429 78580
L112526 78580
L112575 78556
L112599 78532
L112624 78483
L112624 78361
L112599 78312
L112575 78288
L112526 78263
L112429 78263
L112380 78288
L112356 78312
L112331 78361
" />
</g>
<g style="fill:#000000; fill-opacity:0.0; 
stroke:#000000; stroke-width:39.3701; stroke-opacity:1; 
stroke-linecap:round; stroke-linejoin:round;">
</g>
<g style="fill:#000000; fill-opacity:0.0; 
stroke:#000000; stroke-width:59.0551; stroke-opacity:1; 
stroke-linecap:round; stroke-linejoin:round;">
<path d="M3937 23622
L4724 23622
" />
</g>
<g style="fill:#000000; fill-opacity:0.0; 
stroke:#000000; stroke-width:39.3701; stroke-opacity:1; 
stroke-linecap:round; stroke-linejoin:round;">
</g>
<g style="fill:#000000; fill-opacity:0.0; 
stroke:#000000; stroke-width:59.0551; stroke-opacity:1; 
stroke-linecap:round; stroke-linejoin:round;">
<path d="M3937 43307
L4724 43307
" />
</g>
<g style="fill:#000000; fill-opacity:0.0; 
stroke:#000000; stroke-width:39.3701; stroke-opacity:1; 
stroke-linecap:round; stroke-linejoin:round;">
</g>
<g style="fill:#000000; fill-opacity:0.0; 
stroke:#000000; stroke-width:59.0551; stroke-opacity:1; 
stroke-linecap:round; stroke-linejoin:round;">
<path d="M3937 62992
L4724 62992
" />
</g>
<g style="fill:#000000; fill-opacity:0.0; 
stroke:#000000; stroke-width:39.3701; stroke-opacity:1; 
stroke-linecap:round; stroke-linejoin:round;">
</g>
<g style="fill:#000000; fill-opacity:0.0; 
stroke:#000000; stroke-width:59.0551; stroke-opacity:1; 
stroke-linecap:round; stroke-linejoin:round;">
<text x="4330.71" y="14035.4"
textLength="497.75" font-size="682.415" lengthAdjust="spacingAndGlyphs"
text-anchor="middle" opacity="0">A</text>
<path d="M4208 13864
L4452 13864
" />
<path d="M4160 14011
L4330 13499
L4501 14011
" />
</g>
<g style="fill:#000000; fill-opacity:0.0; 
stroke:#000000; stroke-width:39.3701; stroke-opacity:1; 
stroke-linecap:round; stroke-linejoin:round;">
</g>
<g style="fill:#000000; fill-opacity:0.0; 
stroke:#000000; stroke-width:59.0551; stroke-opacity:1; 
stroke-linecap:round; stroke-linejoin:round;">
<text x="4330.71" y="33720.5"
textLength="570.866" font-size="682.415" lengthAdjust="spacingAndGlyphs"
text-anchor="middle" opacity="0">B</text>
<path d="M4367 33428
L4440 33452
L4464 33476
L4489 33525
L4489 33598
L4464 33647
L4440 33671
L4391 33696
L4196 33696
L4196 33184
L4367 33184
L4416 33208
L4440 33233
L4464 33281
L4464 33330
L4440 33379
L4416 33403
L4367 33428
L4196 33428
" />
</g>
<g style="fill:#000000; fill-opacity:0.0; 
stroke:#000000; stroke-width:39.3701; stroke-opacity:1; 
stroke-linecap:round; stroke-linejoin:round;">
</g>
<g style="fill:#000000; fill-opacity:0.0; 
stroke:#000000; stroke-width:59.0551; stroke-opacity:1; 
stroke-linecap:round; stroke-linejoin:round;">
<text x="4330.71" y="53405.5"
textLength="570.866" font-size="682.415" lengthAdjust="spacingAndGlyphs"
text-anchor="middle" opacity="0">C</text>
<path d="M4489 53332
L4464 53356
L4391 53381
L4342 53381
L4269 53356
L4221 53308
L4196 53259
L4172 53161
L4172 53088
L4196 52991
L4221 52942
L4269 52893
L4342 52869
L4391 52869
L4464 52893
L4489 52918
" />
</g>
<g style="fill:#000000; fill-opacity:0.0; 
stroke:#000000; stroke-width:39.3701; stroke-opacity:1; 
stroke-linecap:round; stroke-linejoin:round;">
</g>
<g style="fill:#000000; fill-opacity:0.0; 
stroke:#000000; stroke-width:59.0551; stroke-opacity:1; 
stroke-linecap:round; stroke-linejoin:round;">
<text x="4330.71" y="73090.6"
textLength="570.866" font-size="682.415" lengthAdjust="spacingAndGlyphs"
text-anchor="middle" opacity="0">D</text>
<path d="M4196 73066
L4196 72554
L4318 72554
L4391 72578
L4440 72627
L4464 72676
L4489 72773
L4489 72846
L4464 72944
L4440 72993
L4391 73041
L4318 73066
L4196 73066
" />
</g>
<g style="fill:#000000; fill-opacity:0.0; 
stroke:#000000; stroke-width:39.3701; stroke-opacity:1; 
stroke-linecap:round; stroke-linejoin:round;">
</g>
<g style="fill:#000000; fill-opacity:0.0; 
stroke:#000000; stroke-width:59.0551; stroke-opacity:1; 
stroke-linecap:round; stroke-linejoin:round;">
<path d="M112992 23622
L112205 23622
" />
</g>
<g style="fill:#000000; fill-opacity:0.0; 
stroke:#000000; stroke-width:39.3701; stroke-opacity:1; 
stroke-linecap:round; stroke-linejoin:round;">
</g>
<g style="fill:#000000; fill-opacity:0.0; 
stroke:#000000; stroke-width:59.0551; stroke-opacity:1; 
stroke-linecap:round; stroke-linejoin:round;">
<path d="M112992 43307
L112205 43307
" />
</g>
<g style="fill:#000000; fill-opacity:0.0; 
stroke:#000000; stroke-width:39.3701; stroke-opacity:1; 
stroke-linecap:round; stroke-linejoin:round;">
</g>
<g style="fill:#000000; fill-opacity:0.0; 
stroke:#000000; stroke-width:59.0551; stroke-opacity:1; 
stroke-linecap:round; stroke-linejoin:round;">
<path d="M112992 62992
L112205 62992
" />
</g>
<g style="fill:#000000; fill-opacity:0.0; 
stroke:#000000; stroke-width:39.3701; stroke-opacity:1; 
stroke-linecap:round; stroke-linejoin:round;">
</g>
<g style="fill:#000000; fill-opacity:0.0; 
stroke:#000000; stroke-width:59.0551; stroke-opacity:1; 
stroke-linecap:round; stroke-linejoin:round;">
<text x="112599" y="14035.4"
textLength="497.75" font-size="682.415" lengthAdjust="spacingAndGlyphs"
text-anchor="middle" opacity="0">A</text>
<path d="M112477 13864
L112721 13864
" />
<path d="M112428 14011
L112599 13499
L112769 14011
" />
</g>
<g style="fill:#000000; fill-opacity:0.0; 
stroke:#000000; stroke-width:39.3701; stroke-opacity:1; 
stroke-linecap:round; stroke-linejoin:round;">
</g>
<g style="fill:#000000; fill-opacity:0.0; 
stroke:#000000; stroke-width:59.0551; stroke-opacity:1; 
stroke-linecap:round; stroke-linejoin:round;">
<text x="112599" y="33720.5"
textLength="570.866" font-size="682.415" lengthAdjust="spacingAndGlyphs"
text-anchor="middle" opacity="0">B</text>
<path d="M112635 33428
L112708 33452
L112733 33476
L112757 33525
L112757 33598
L112733 33647
L112708 33671
L112660 33696
L112465 33696
L112465 33184
L112635 33184
L112684 33208
L112708 33233
L112733 33281
L112733 33330
L112708 33379
L112684 33403
L112635 33428
L112465 33428
" />
</g>
<g style="fill:#000000; fill-opacity:0.0; 
stroke:#000000; stroke-width:39.3701; stroke-opacity:1; 
stroke-linecap:round; stroke-linejoin:round;">
</g>
<g style="fill:#000000; fill-opacity:0.0; 
stroke:#000000; stroke-width:59.0551; stroke-opacity:1; 
stroke-linecap:round; stroke-linejoin:round;">
<text x="112599" y="53405.5"
textLength="570.866" font-size="682.415" lengthAdjust="spacingAndGlyphs"
text-anchor="middle" opacity="0">C</text>
<path d="M112757 53332
L112733 53356
L112660 53381
L112611 53381
L112538 53356
L112489 53308
L112465 53259
L112440 53161
L112440 53088
L112465 52991
L112489 52942
L112538 52893
L112611 52869
L112660 52869
L112733 52893
L112757 52918
" />
</g>
<g style="fill:#000000; fill-opacity:0.0; 
stroke:#000000; stroke-width:39.3701; stroke-opacity:1; 
stroke-linecap:round; stroke-linejoin:round;">
</g>
<g style="fill:#000000; fill-opacity:0.0; 
stroke:#000000; stroke-width:59.0551; stroke-opacity:1; 
stroke-linecap:round; stroke-linejoin:round;">
<text x="112599" y="73090.6"
textLength="570.866" font-size="682.415" lengthAdjust="spacingAndGlyphs"
text-anchor="middle" opacity="0">D</text>
<path d="M112465 73066
L112465 72554
L112587 72554
L112660 72578
L112708 72627
L112733 72676
L112757 72773
L112757 72846
L112733 72944
L112708 72993
L112660 73041
L112587 73066
L112465 73066
" />
</g>
<g style="fill:#000000; fill-opacity:0.0; 
stroke:#000000; stroke-width:39.3701; stroke-opacity:1; 
stroke-linecap:round; stroke-linejoin:round;">
</g>
<g style="fill:#000000; fill-opacity:0.0; 
stroke:#000000; stroke-width:59.0551; stroke-opacity:1; 
stroke-linecap:round; stroke-linejoin:round;">
<text x="78741" y="76321.7"
textLength="7820.59" font-size="787.402" lengthAdjust="spacingAndGlyphs"
text-anchor="start" opacity="0">Date: 24.11.2021</text>
<path d="M78911 76293
L78911 75703
L79051 75703
L79136 75731
L79192 75787
L79220 75843
L79248 75956
L79248 76040
L79220 76153
L79192 76209
L79136 76265
L79051 76293
L78911 76293
" />
<path d="M79754 76293
L79754 75984
L79726 75928
L79670 75899
L79557 75899
L79501 75928
" />
<path d="M79754 76265
L79698 76293
L79557 76293
L79501 76265
L79473 76209
L79473 76153
L79501 76096
L79557 76068
L79698 76068
L79754 76040
" />
<path d="M79951 75899
L80176 75899
" />
<path d="M80036 75703
L80036 76209
L80064 76265
L80120 76293
L80176 76293
" />
<path d="M80598 76265
L80542 76293
L80429 76293
L80373 76265
L80345 76209
L80345 75984
L80373 75928
L80429 75899
L80542 75899
L80598 75928
L80626 75984
L80626 76040
L80345 76096
" />
<path d="M80879 76237
L80907 76265
L80879 76293
L80851 76265
L80879 76237
L80879 76293
" />
<path d="M80879 75928
L80907 75956
L80879 75984
L80851 75956
L80879 75928
L80879 75984
" />
<path d="M81582 75759
L81610 75731
L81667 75703
L81807 75703
L81863 75731
L81892 75759
L81920 75815
L81920 75871
L81892 75956
L81554 76293
L81920 76293
" />
<path d="M82426 75899
L82426 76293
" />
<path d="M82285 75674
L82145 76096
L82510 76096
" />
<path d="M82735 76237
L82763 76265
L82735 76293
L82707 76265
L82735 76237
L82735 76293
" />
<path d="M83326 76293
L82988 76293
" />
<path d="M83157 76293
L83157 75703
L83101 75787
L83045 75843
L82988 75871
" />
<path d="M83888 76293
L83551 76293
" />
<path d="M83719 76293
L83719 75703
L83663 75787
L83607 75843
L83551 75871
" />
<path d="M84141 76237
L84169 76265
L84141 76293
L84113 76265
L84141 76237
L84141 76293
" />
<path d="M84394 75759
L84422 75731
L84479 75703
L84619 75703
L84676 75731
L84704 75759
L84732 75815
L84732 75871
L84704 75956
L84366 76293
L84732 76293
" />
<path d="M85097 75703
L85154 75703
L85210 75731
L85238 75759
L85266 75815
L85294 75928
L85294 76068
L85266 76181
L85238 76237
L85210 76265
L85154 76293
L85097 76293
L85041 76265
L85013 76237
L84985 76181
L84957 76068
L84957 75928
L84985 75815
L85013 75759
L85041 75731
L85097 75703
" />
<path d="M85519 75759
L85547 75731
L85604 75703
L85744 75703
L85800 75731
L85829 75759
L85857 75815
L85857 75871
L85829 75956
L85491 76293
L85857 76293
" />
<path d="M86419 76293
L86082 76293
" />
<path d="M86250 76293
L86250 75703
L86194 75787
L86138 75843
L86082 75871
" />
</g>
<g style="fill:#000000; fill-opacity:0.0; 
stroke:#000000; stroke-width:39.3701; stroke-opacity:1; 
stroke-linecap:round; stroke-linejoin:round;">
</g>
<g style="fill:#000000; fill-opacity:0.0; 
stroke:#000000; stroke-width:59.0551; stroke-opacity:1; 
stroke-linecap:round; stroke-linejoin:round;">
<path d="M69685 76577
L112205 76577
" />
</g>
<g style="fill:#000000; fill-opacity:0.0; 
stroke:#000000; stroke-width:39.3701; stroke-opacity:1; 
stroke-linecap:round; stroke-linejoin:round;">
</g>
<g style="fill:#000000; fill-opacity:0.0; 
stroke:#000000; stroke-width:59.0551; stroke-opacity:1; 
stroke-linecap:round; stroke-linejoin:round;">
<text x="70079.6" y="77424.1"
textLength="14429.1" font-size="787.402" lengthAdjust="spacingAndGlyphs"
text-anchor="start" opacity="0">KiCad E.D.A.  pcbnew (5.1.7)-1</text>
<path d="M70249 77395
L70249 76805
" />
<path d="M70587 77395
L70334 77058
" />
<path d="M70587 76805
L70249 77142
" />
<path d="M70840 77395
L70840 77002
" />
<path d="M70840 76805
L70812 76833
L70840 76861
L70868 76833
L70840 76805
L70840 76861
" />
<path d="M71458 77339
L71430 77367
L71346 77395
L71290 77395
L71205 77367
L71149 77311
L71121 77255
L71093 77142
L71093 77058
L71121 76946
L71149 76889
L71205 76833
L71290 76805
L71346 76805
L71430 76833
L71458 76861
" />
<path d="M71965 77395
L71965 77086
L71937 77030
L71880 77002
L71768 77002
L71712 77030
" />
<path d="M71965 77367
L71908 77395
L71768 77395
L71712 77367
L71683 77311
L71683 77255
L71712 77199
L71768 77171
L71908 77171
L71965 77142
" />
<path d="M72499 77395
L72499 76805
" />
<path d="M72499 77367
L72443 77395
L72330 77395
L72274 77367
L72246 77339
L72218 77283
L72218 77114
L72246 77058
L72274 77030
L72330 77002
L72443 77002
L72499 77030
" />
<path d="M73230 77086
L73427 77086
" />
<path d="M73511 77395
L73230 77395
L73230 76805
L73511 76805
" />
<path d="M73764 77339
L73793 77367
L73764 77395
L73736 77367
L73764 77339
L73764 77395
" />
<path d="M74046 77395
L74046 76805
L74186 76805
L74271 76833
L74327 76889
L74355 76946
L74383 77058
L74383 77142
L74355 77255
L74327 77311
L74271 77367
L74186 77395
L74046 77395
" />
<path d="M74636 77339
L74664 77367
L74636 77395
L74608 77367
L74636 77339
L74636 77395
" />
<path d="M74889 77227
L75171 77227
" />
<path d="M74833 77395
L75030 76805
L75227 77395
" />
<path d="M75424 77339
L75452 77367
L75424 77395
L75395 77367
L75424 77339
L75424 77395
" />
<path d="M76605 77002
L76605 77592
" />
<path d="M76605 77030
L76661 77002
L76773 77002
L76830 77030
L76858 77058
L76886 77114
L76886 77283
L76858 77339
L76830 77367
L76773 77395
L76661 77395
L76605 77367
" />
<path d="M77392 77367
L77336 77395
L77223 77395
L77167 77367
L77139 77339
L77111 77283
L77111 77114
L77139 77058
L77167 77030
L77223 77002
L77336 77002
L77392 77030
" />
<path d="M77645 77395
L77645 76805
" />
<path d="M77645 77030
L77701 77002
L77814 77002
L77870 77030
L77898 77058
L77926 77114
L77926 77283
L77898 77339
L77870 77367
L77814 77395
L77701 77395
L77645 77367
" />
<path d="M78180 77002
L78180 77395
" />
<path d="M78180 77058
L78208 77030
L78264 77002
L78348 77002
L78404 77030
L78433 77086
L78433 77395
" />
<path d="M78939 77367
L78883 77395
L78770 77395
L78714 77367
L78686 77311
L78686 77086
L78714 77030
L78770 77002
L78883 77002
L78939 77030
L78967 77086
L78967 77142
L78686 77199
" />
<path d="M79164 77002
L79276 77395
L79389 77114
L79501 77395
L79614 77002
" />
<path d="M80457 77620
L80429 77592
L80373 77508
L80345 77452
L80317 77367
L80289 77227
L80289 77114
L80317 76974
L80345 76889
L80373 76833
L80429 76749
L80457 76721
" />
<path d="M80964 76805
L80682 76805
L80654 77086
L80682 77058
L80739 77030
L80879 77030
L80935 77058
L80964 77086
L80992 77142
L80992 77283
L80964 77339
L80935 77367
L80879 77395
L80739 77395
L80682 77367
L80654 77339
" />
<path d="M81245 77339
L81273 77367
L81245 77395
L81217 77367
L81245 77339
L81245 77395
" />
<path d="M81835 77395
L81498 77395
" />
<path d="M81667 77395
L81667 76805
L81610 76889
L81554 76946
L81498 76974
" />
<path d="M82088 77339
L82117 77367
L82088 77395
L82060 77367
L82088 77339
L82088 77395
" />
<path d="M82313 76805
L82707 76805
L82454 77395
" />
<path d="M82876 77620
L82904 77592
L82960 77508
L82988 77452
L83016 77367
L83045 77227
L83045 77114
L83016 76974
L82988 76889
L82960 76833
L82904 76749
L82876 76721
" />
<path d="M83326 77171
L83776 77171
" />
<path d="M84366 77395
L84029 77395
" />
<path d="M84197 77395
L84197 76805
L84141 76889
L84085 76946
L84029 76974
" />
</g>
<g style="fill:#000000; fill-opacity:0.0; 
stroke:#000000; stroke-width:39.3701; stroke-opacity:1; 
stroke-linecap:round; stroke-linejoin:round;">
</g>
<g style="fill:#000000; fill-opacity:0.0; 
stroke:#000000; stroke-width:59.0551; stroke-opacity:1; 
stroke-linecap:round; stroke-linejoin:round;">
<path d="M69685 75396
L112205 75396
" />
</g>
<g style="fill:#000000; fill-opacity:0.0; 
stroke:#000000; stroke-width:39.3701; stroke-opacity:1; 
stroke-linecap:round; stroke-linejoin:round;">
</g>
<g style="fill:#000000; fill-opacity:0.0; 
stroke:#000000; stroke-width:118.11; stroke-opacity:1; 
stroke-linecap:round; stroke-linejoin:round;">
<text x="103544" y="76321.7"
textLength="4249.16" font-size="787.402" lengthAdjust="spacingAndGlyphs"
text-anchor="start" opacity="0">Rev: V1.0</text>
<path d="M104099 76293
L103902 76012
" />
<path d="M103761 76293
L103761 75703
L103986 75703
L104042 75731
L104070 75759
L104099 75815
L104099 75899
L104070 75956
L104042 75984
L103986 76012
L103761 76012
" />
<path d="M104577 76265
L104520 76293
L104408 76293
L104352 76265
L104323 76209
L104323 75984
L104352 75928
L104408 75899
L104520 75899
L104577 75928
L104605 75984
L104605 76040
L104323 76096
" />
<path d="M104802 75899
L104942 76293
L105083 75899
" />
<path d="M105308 76237
L105336 76265
L105308 76293
L105280 76265
L105308 76237
L105308 76293
" />
<path d="M105308 75928
L105336 75956
L105308 75984
L105280 75956
L105308 75928
L105308 75984
" />
<path d="M105955 75703
L106151 76293
L106348 75703
" />
<path d="M106854 76293
L106517 76293
" />
<path d="M106686 76293
L106686 75703
L106629 75787
L106573 75843
L106517 75871
" />
<path d="M107108 76237
L107136 76265
L107108 76293
L107079 76265
L107108 76237
L107108 76293
" />
<path d="M107501 75703
L107557 75703
L107614 75731
L107642 75759
L107670 75815
L107698 75928
L107698 76068
L107670 76181
L107642 76237
L107614 76265
L107557 76293
L107501 76293
L107445 76265
L107417 76237
L107389 76181
L107361 76068
L107361 75928
L107389 75815
L107417 75759
L107445 75731
L107501 75703
" />
</g>
<g style="fill:#000000; fill-opacity:0.0; 
stroke:#000000; stroke-width:39.3701; stroke-opacity:1; 
stroke-linecap:round; stroke-linejoin:round;">
</g>
<g style="fill:#000000; fill-opacity:0.0; 
stroke:#000000; stroke-width:59.0551; stroke-opacity:1; 
stroke-linecap:round; stroke-linejoin:round;">
<text x="70079.6" y="76321.7"
textLength="3781.21" font-size="787.402" lengthAdjust="spacingAndGlyphs"
text-anchor="start" opacity="0">Size: A4</text>
<path d="M70221 76265
L70305 76293
L70446 76293
L70502 76265
L70530 76237
L70559 76181
L70559 76124
L70530 76068
L70502 76040
L70446 76012
L70334 75984
L70277 75956
L70249 75928
L70221 75871
L70221 75815
L70249 75759
L70277 75731
L70334 75703
L70474 75703
L70559 75731
" />
<path d="M70812 76293
L70812 75899
" />
<path d="M70812 75703
L70784 75731
L70812 75759
L70840 75731
L70812 75703
L70812 75759
" />
<path d="M71037 75899
L71346 75899
L71037 76293
L71346 76293
" />
<path d="M71796 76265
L71740 76293
L71627 76293
L71571 76265
L71543 76209
L71543 75984
L71571 75928
L71627 75899
L71740 75899
L71796 75928
L71824 75984
L71824 76040
L71543 76096
" />
<path d="M72077 76237
L72105 76265
L72077 76293
L72049 76265
L72077 76237
L72077 76293
" />
<path d="M72077 75928
L72105 75956
L72077 75984
L72049 75956
L72077 75928
L72077 75984
" />
<path d="M72780 76124
L73061 76124
" />
<path d="M72724 76293
L72921 75703
L73118 76293
" />
<path d="M73568 75899
L73568 76293
" />
<path d="M73427 75674
L73286 76096
L73652 76096
" />
</g>
<g style="fill:#000000; fill-opacity:0.0; 
stroke:#000000; stroke-width:39.3701; stroke-opacity:1; 
stroke-linecap:round; stroke-linejoin:round;">
</g>
<g style="fill:#000000; fill-opacity:0.0; 
stroke:#000000; stroke-width:59.0551; stroke-opacity:1; 
stroke-linecap:round; stroke-linejoin:round;">
<text x="103544" y="77424.1"
textLength="3349.27" font-size="787.402" lengthAdjust="spacingAndGlyphs"
text-anchor="start" opacity="0">Id: 1/1</text>
<path d="M103714 77395
L103714 76805
" />
<path d="M104248 77395
L104248 76805
" />
<path d="M104248 77367
L104192 77395
L104079 77395
L104023 77367
L103995 77339
L103967 77283
L103967 77114
L103995 77058
L104023 77030
L104079 77002
L104192 77002
L104248 77030
" />
<path d="M104529 77339
L104557 77367
L104529 77395
L104501 77367
L104529 77339
L104529 77395
" />
<path d="M104529 77030
L104557 77058
L104529 77086
L104501 77058
L104529 77030
L104529 77086
" />
<path d="M105570 77395
L105232 77395
" />
<path d="M105401 77395
L105401 76805
L105345 76889
L105289 76946
L105232 76974
" />
<path d="M106245 76777
L105739 77536
" />
<path d="M106751 77395
L106413 77395
" />
<path d="M106582 77395
L106582 76805
L106526 76889
L106470 76946
L106413 76974
" />
</g>
<g style="fill:#000000; fill-opacity:0.0; 
stroke:#000000; stroke-width:39.3701; stroke-opacity:1; 
stroke-linecap:round; stroke-linejoin:round;">
</g>
<g style="fill:#000000; fill-opacity:0.0; 
stroke:#000000; stroke-width:59.0551; stroke-opacity:1; 
stroke-linecap:round; stroke-linejoin:round;">
<path d="M69685 73821
L112205 73821
" />
</g>
<g style="fill:#000000; fill-opacity:0.0; 
stroke:#000000; stroke-width:39.3701; stroke-opacity:1; 
stroke-linecap:round; stroke-linejoin:round;">
</g>
<g style="fill:#000000; fill-opacity:0.0; 
stroke:#000000; stroke-width:157.48; stroke-opacity:1; 
stroke-linecap:round; stroke-linejoin:round;">
<text x="70079.6" y="74924.1"
textLength="15062.2" font-size="1049.87" lengthAdjust="spacingAndGlyphs"
text-anchor="start" opacity="0">Title: Two transistor AMP</text>
<path d="M70360 74099
L70810 74099
" />
<path d="M70486 74886
L70585 74099
" />
<path d="M70974 74886
L71039 74361
" />
<path d="M71072 74099
L71030 74136
L71063 74174
L71105 74136
L71072 74099
L71063 74174
" />
<path d="M71302 74361
L71602 74361
" />
<path d="M71447 74099
L71363 74774
L71391 74849
L71461 74886
L71536 74886
" />
<path d="M71911 74886
L71841 74849
L71813 74774
L71897 74099
" />
<path d="M72516 74849
L72436 74886
L72286 74886
L72216 74849
L72187 74774
L72225 74474
L72272 74399
L72352 74361
L72501 74361
L72572 74399
L72600 74474
L72591 74549
L72206 74624
" />
<path d="M72895 74811
L72928 74849
L72886 74886
L72853 74849
L72895 74811
L72886 74886
" />
<path d="M72947 74399
L72980 74436
L72937 74474
L72905 74436
L72947 74399
L72937 74474
" />
<path d="M73847 74099
L74297 74099
" />
<path d="M73973 74886
L74072 74099
" />
<path d="M74451 74361
L74536 74886
L74732 74511
L74836 74886
L75051 74361
" />
<path d="M75398 74886
L75328 74849
L75295 74811
L75267 74736
L75295 74511
L75342 74436
L75384 74399
L75464 74361
L75576 74361
L75646 74399
L75679 74436
L75707 74511
L75679 74736
L75632 74811
L75590 74849
L75510 74886
L75398 74886
" />
<path d="M76551 74361
L76851 74361
" />
<path d="M76696 74099
L76612 74774
L76640 74849
L76710 74886
L76785 74886
" />
<path d="M77048 74886
L77113 74361
" />
<path d="M77095 74511
L77142 74436
L77184 74399
L77263 74361
L77338 74361
" />
<path d="M77873 74886
L77924 74474
L77896 74399
L77826 74361
L77676 74361
L77596 74399
" />
<path d="M77877 74849
L77798 74886
L77610 74886
L77540 74849
L77512 74774
L77521 74699
L77568 74624
L77648 74586
L77835 74586
L77915 74549
" />
<path d="M78313 74361
L78248 74886
" />
<path d="M78304 74436
L78346 74399
L78426 74361
L78538 74361
L78609 74399
L78637 74474
L78585 74886
" />
<path d="M78927 74849
L78998 74886
L79148 74886
L79227 74849
L79274 74774
L79279 74736
L79251 74661
L79180 74624
L79068 74624
L78998 74586
L78969 74511
L78974 74474
L79021 74399
L79101 74361
L79213 74361
L79283 74399
" />
<path d="M79597 74886
L79663 74361
" />
<path d="M79696 74099
L79654 74136
L79687 74174
L79729 74136
L79696 74099
L79687 74174
" />
<path d="M79940 74849
L80010 74886
L80160 74886
L80240 74849
L80286 74774
L80291 74736
L80263 74661
L80193 74624
L80080 74624
L80010 74586
L79982 74511
L79986 74474
L80033 74399
L80113 74361
L80226 74361
L80296 74399
" />
<path d="M80563 74361
L80863 74361
" />
<path d="M80708 74099
L80624 74774
L80652 74849
L80722 74886
L80797 74886
" />
<path d="M81172 74886
L81102 74849
L81069 74811
L81041 74736
L81069 74511
L81116 74436
L81158 74399
L81238 74361
L81350 74361
L81421 74399
L81453 74436
L81482 74511
L81453 74736
L81407 74811
L81364 74849
L81285 74886
L81172 74886
" />
<path d="M81772 74886
L81838 74361
" />
<path d="M81819 74511
L81866 74436
L81908 74399
L81988 74361
L82063 74361
" />
<path d="M82850 74661
L83225 74661
" />
<path d="M82747 74886
L83108 74099
L83272 74886
" />
<path d="M83534 74886
L83633 74099
L83825 74661
L84158 74099
L84059 74886
" />
<path d="M84434 74886
L84533 74099
L84833 74099
L84903 74136
L84936 74174
L84964 74249
L84950 74361
L84903 74436
L84861 74474
L84781 74511
L84481 74511
" />
</g>
<g style="fill:#000000; fill-opacity:0.0; 
stroke:#000000; stroke-width:39.3701; stroke-opacity:1; 
stroke-linecap:round; stroke-linejoin:round;">
</g>
<g style="fill:#000000; fill-opacity:0.0; 
stroke:#000000; stroke-width:59.0551; stroke-opacity:1; 
stroke-linecap:round; stroke-linejoin:round;">
<text x="70079.6" y="73408.3"
textLength="15699.7" font-size="787.402" lengthAdjust="spacingAndGlyphs"
text-anchor="start" opacity="0">File: Two_transistor_AMP.kicad_pcb</text>
<path d="M70446 73070
L70249 73070
" />
<path d="M70249 73380
L70249 72789
L70530 72789
" />
<path d="M70755 73380
L70755 72986
" />
<path d="M70755 72789
L70727 72817
L70755 72845
L70784 72817
L70755 72789
L70755 72845
" />
<path d="M71121 73380
L71065 73352
L71037 73295
L71037 72789
" />
<path d="M71571 73352
L71515 73380
L71402 73380
L71346 73352
L71318 73295
L71318 73070
L71346 73014
L71402 72986
L71515 72986
L71571 73014
L71599 73070
L71599 73127
L71318 73183
" />
<path d="M71852 73323
L71880 73352
L71852 73380
L71824 73352
L71852 73323
L71852 73380
" />
<path d="M71852 73014
L71880 73042
L71852 73070
L71824 73042
L71852 73014
L71852 73070
" />
<path d="M72499 72789
L72836 72789
" />
<path d="M72668 73380
L72668 72789
" />
<path d="M72977 72986
L73090 73380
L73202 73099
L73314 73380
L73427 72986
" />
<path d="M73736 73380
L73680 73352
L73652 73323
L73624 73267
L73624 73099
L73652 73042
L73680 73014
L73736 72986
L73821 72986
L73877 73014
L73905 73042
L73933 73099
L73933 73267
L73905 73323
L73877 73352
L73821 73380
L73736 73380
" />
<path d="M74046 73436
L74496 73436
" />
<path d="M74552 72986
L74777 72986
" />
<path d="M74636 72789
L74636 73295
L74664 73352
L74721 73380
L74777 73380
" />
<path d="M74974 73380
L74974 72986
" />
<path d="M74974 73099
L75002 73042
L75030 73014
L75086 72986
L75142 72986
" />
<path d="M75592 73380
L75592 73070
L75564 73014
L75508 72986
L75395 72986
L75339 73014
" />
<path d="M75592 73352
L75536 73380
L75395 73380
L75339 73352
L75311 73295
L75311 73239
L75339 73183
L75395 73155
L75536 73155
L75592 73127
" />
<path d="M75874 72986
L75874 73380
" />
<path d="M75874 73042
L75902 73014
L75958 72986
L76042 72986
L76099 73014
L76127 73070
L76127 73380
" />
<path d="M76380 73352
L76436 73380
L76548 73380
L76605 73352
L76633 73295
L76633 73267
L76605 73211
L76548 73183
L76464 73183
L76408 73155
L76380 73099
L76380 73070
L76408 73014
L76464 72986
L76548 72986
L76605 73014
" />
<path d="M76886 73380
L76886 72986
" />
<path d="M76886 72789
L76858 72817
L76886 72845
L76914 72817
L76886 72789
L76886 72845
" />
<path d="M77139 73352
L77195 73380
L77308 73380
L77364 73352
L77392 73295
L77392 73267
L77364 73211
L77308 73183
L77223 73183
L77167 73155
L77139 73099
L77139 73070
L77167 73014
L77223 72986
L77308 72986
L77364 73014
" />
<path d="M77561 72986
L77786 72986
" />
<path d="M77645 72789
L77645 73295
L77673 73352
L77730 73380
L77786 73380
" />
<path d="M78067 73380
L78011 73352
L77983 73323
L77955 73267
L77955 73099
L77983 73042
L78011 73014
L78067 72986
L78151 72986
L78208 73014
L78236 73042
L78264 73099
L78264 73267
L78236 73323
L78208 73352
L78151 73380
L78067 73380
" />
<path d="M78517 73380
L78517 72986
" />
<path d="M78517 73099
L78545 73042
L78573 73014
L78629 72986
L78686 72986
" />
<path d="M78742 73436
L79192 73436
" />
<path d="M79304 73211
L79586 73211
" />
<path d="M79248 73380
L79445 72789
L79642 73380
" />
<path d="M79839 73380
L79839 72789
L80036 73211
L80232 72789
L80232 73380
" />
<path d="M80514 73380
L80514 72789
L80739 72789
L80795 72817
L80823 72845
L80851 72902
L80851 72986
L80823 73042
L80795 73070
L80739 73099
L80514 73099
" />
<path d="M81104 73323
L81132 73352
L81104 73380
L81076 73352
L81104 73323
L81104 73380
" />
<path d="M81385 73380
L81385 72789
" />
<path d="M81442 73155
L81610 73380
" />
<path d="M81610 72986
L81385 73211
" />
<path d="M81863 73380
L81863 72986
" />
<path d="M81863 72789
L81835 72817
L81863 72845
L81892 72817
L81863 72789
L81863 72845
" />
<path d="M82398 73352
L82341 73380
L82229 73380
L82173 73352
L82145 73323
L82117 73267
L82117 73099
L82145 73042
L82173 73014
L82229 72986
L82341 72986
L82398 73014
" />
<path d="M82904 73380
L82904 73070
L82876 73014
L82820 72986
L82707 72986
L82651 73014
" />
<path d="M82904 73352
L82848 73380
L82707 73380
L82651 73352
L82623 73295
L82623 73239
L82651 73183
L82707 73155
L82848 73155
L82904 73127
" />
<path d="M83438 73380
L83438 72789
" />
<path d="M83438 73352
L83382 73380
L83269 73380
L83213 73352
L83185 73323
L83157 73267
L83157 73099
L83185 73042
L83213 73014
L83269 72986
L83382 72986
L83438 73014
" />
<path d="M83579 73436
L84029 73436
" />
<path d="M84169 72986
L84169 73577
" />
<path d="M84169 73014
L84226 72986
L84338 72986
L84394 73014
L84422 73042
L84451 73099
L84451 73267
L84422 73323
L84394 73352
L84338 73380
L84226 73380
L84169 73352
" />
<path d="M84957 73352
L84901 73380
L84788 73380
L84732 73352
L84704 73323
L84676 73267
L84676 73099
L84704 73042
L84732 73014
L84788 72986
L84901 72986
L84957 73014
" />
<path d="M85210 73380
L85210 72789
" />
<path d="M85210 73014
L85266 72986
L85379 72986
L85435 73014
L85463 73042
L85491 73099
L85491 73267
L85463 73323
L85435 73352
L85379 73380
L85266 73380
L85210 73352
" />
</g>
<g style="fill:#000000; fill-opacity:0.0; 
stroke:#000000; stroke-width:39.3701; stroke-opacity:1; 
stroke-linecap:round; stroke-linejoin:round;">
</g>
<g style="fill:#000000; fill-opacity:0.0; 
stroke:#000000; stroke-width:59.0551; stroke-opacity:1; 
stroke-linecap:round; stroke-linejoin:round;">
<path d="M69685 71459
L112205 71459
" />
</g>
<g style="fill:#000000; fill-opacity:0.0; 
stroke:#000000; stroke-width:39.3701; stroke-opacity:1; 
stroke-linecap:round; stroke-linejoin:round;">
</g>
<g style="fill:#000000; fill-opacity:0.0; 
stroke:#000000; stroke-width:59.0551; stroke-opacity:1; 
stroke-linecap:round; stroke-linejoin:round;">
<text x="70079.6" y="72345.4"
textLength="3236.78" font-size="787.402" lengthAdjust="spacingAndGlyphs"
text-anchor="start" opacity="0">Sheet: </text>
<path d="M70221 72289
L70305 72317
L70446 72317
L70502 72289
L70530 72260
L70559 72204
L70559 72148
L70530 72092
L70502 72064
L70446 72036
L70334 72007
L70277 71979
L70249 71951
L70221 71895
L70221 71839
L70249 71782
L70277 71754
L70334 71726
L70474 71726
L70559 71754
" />
<path d="M70812 72317
L70812 71726
" />
<path d="M71065 72317
L71065 72007
L71037 71951
L70980 71923
L70896 71923
L70840 71951
L70812 71979
" />
<path d="M71571 72289
L71515 72317
L71402 72317
L71346 72289
L71318 72232
L71318 72007
L71346 71951
L71402 71923
L71515 71923
L71571 71951
L71599 72007
L71599 72064
L71318 72120
" />
<path d="M72077 72289
L72021 72317
L71908 72317
L71852 72289
L71824 72232
L71824 72007
L71852 71951
L71908 71923
L72021 71923
L72077 71951
L72105 72007
L72105 72064
L71824 72120
" />
<path d="M72274 71923
L72499 71923
" />
<path d="M72358 71726
L72358 72232
L72386 72289
L72443 72317
L72499 72317
" />
<path d="M72696 72260
L72724 72289
L72696 72317
L72668 72289
L72696 72260
L72696 72317
" />
<path d="M72696 71951
L72724 71979
L72696 72007
L72668 71979
L72696 71951
L72696 72007
" />
</g>
<g style="fill:#000000; fill-opacity:0.0; 
stroke:#000000; stroke-width:39.3701; stroke-opacity:1; 
stroke-linecap:round; stroke-linejoin:round;">
</g>
<g style="fill:#000000; fill-opacity:0.0; 
stroke:#000000; stroke-width:118.11; stroke-opacity:1; 
stroke-linecap:round; stroke-linejoin:round;">
<text x="70079.6" y="71164.3"
textLength="9198.54" font-size="787.402" lengthAdjust="spacingAndGlyphs"
text-anchor="start" opacity="0">Ventspils Augstskola</text>
<path d="M70212 70545
L70409 71136
L70606 70545
" />
<path d="M71028 71108
L70971 71136
L70859 71136
L70803 71108
L70775 71051
L70775 70826
L70803 70770
L70859 70742
L70971 70742
L71028 70770
L71056 70826
L71056 70883
L70775 70939
" />
<path d="M71309 70742
L71309 71136
" />
<path d="M71309 70798
L71337 70770
L71393 70742
L71478 70742
L71534 70770
L71562 70826
L71562 71136
" />
<path d="M71759 70742
L71984 70742
" />
<path d="M71843 70545
L71843 71051
L71871 71108
L71928 71136
L71984 71136
" />
<path d="M72153 71108
L72209 71136
L72321 71136
L72377 71108
L72406 71051
L72406 71023
L72377 70967
L72321 70939
L72237 70939
L72181 70911
L72153 70854
L72153 70826
L72181 70770
L72237 70742
L72321 70742
L72377 70770
" />
<path d="M72659 70742
L72659 71332
" />
<path d="M72659 70770
L72715 70742
L72827 70742
L72884 70770
L72912 70798
L72940 70854
L72940 71023
L72912 71079
L72884 71108
L72827 71136
L72715 71136
L72659 71108
" />
<path d="M73193 71136
L73193 70742
" />
<path d="M73193 70545
L73165 70573
L73193 70601
L73221 70573
L73193 70545
L73193 70601
" />
<path d="M73559 71136
L73502 71108
L73474 71051
L73474 70545
" />
<path d="M73755 71108
L73812 71136
L73924 71136
L73980 71108
L74009 71051
L74009 71023
L73980 70967
L73924 70939
L73840 70939
L73784 70911
L73755 70854
L73755 70826
L73784 70770
L73840 70742
L73924 70742
L73980 70770
" />
<path d="M74683 70967
L74965 70967
" />
<path d="M74627 71136
L74824 70545
L75021 71136
" />
<path d="M75471 70742
L75471 71136
" />
<path d="M75218 70742
L75218 71051
L75246 71108
L75302 71136
L75386 71136
L75443 71108
L75471 71079
" />
<path d="M76005 70742
L76005 71220
L75977 71276
L75949 71304
L75893 71332
L75808 71332
L75752 71304
" />
<path d="M76005 71108
L75949 71136
L75836 71136
L75780 71108
L75752 71079
L75724 71023
L75724 70854
L75752 70798
L75780 70770
L75836 70742
L75949 70742
L76005 70770
" />
<path d="M76258 71108
L76314 71136
L76427 71136
L76483 71108
L76511 71051
L76511 71023
L76483 70967
L76427 70939
L76343 70939
L76286 70911
L76258 70854
L76258 70826
L76286 70770
L76343 70742
L76427 70742
L76483 70770
" />
<path d="M76680 70742
L76905 70742
" />
<path d="M76764 70545
L76764 71051
L76793 71108
L76849 71136
L76905 71136
" />
<path d="M77074 71108
L77130 71136
L77242 71136
L77299 71108
L77327 71051
L77327 71023
L77299 70967
L77242 70939
L77158 70939
L77102 70911
L77074 70854
L77074 70826
L77102 70770
L77158 70742
L77242 70742
L77299 70770
" />
<path d="M77580 71136
L77580 70545
" />
<path d="M77636 70911
L77805 71136
" />
<path d="M77805 70742
L77580 70967
" />
<path d="M78142 71136
L78086 71108
L78058 71079
L78030 71023
L78030 70854
L78058 70798
L78086 70770
L78142 70742
L78227 70742
L78283 70770
L78311 70798
L78339 70854
L78339 71023
L78311 71079
L78283 71108
L78227 71136
L78142 71136
" />
<path d="M78677 71136
L78620 71108
L78592 71051
L78592 70545
" />
<path d="M79155 71136
L79155 70826
L79127 70770
L79070 70742
L78958 70742
L78902 70770
" />
<path d="M79155 71108
L79099 71136
L78958 71136
L78902 71108
L78874 71051
L78874 70995
L78902 70939
L78958 70911
L79099 70911
L79155 70883
" />
</g>
<g style="fill:#000000; fill-opacity:0.0; 
stroke:#000000; stroke-width:39.3701; stroke-opacity:1; 
stroke-linecap:round; stroke-linejoin:round;">
</g>
<g style="fill:#000000; fill-opacity:0.0; 
stroke:#000000; stroke-width:59.0551; stroke-opacity:1; 
stroke-linecap:round; stroke-linejoin:round;">
<text x="70079.6" y="69983.1"
textLength="2909.45" font-size="787.402" lengthAdjust="spacingAndGlyphs"
text-anchor="start" opacity="0">Autors</text>
<path d="M70221 69786
L70502 69786
" />
<path d="M70165 69955
L70362 69364
L70559 69955
" />
<path d="M71009 69561
L71009 69955
" />
<path d="M70755 69561
L70755 69870
L70784 69926
L70840 69955
L70924 69955
L70980 69926
L71009 69898
" />
<path d="M71205 69561
L71430 69561
" />
<path d="M71290 69364
L71290 69870
L71318 69926
L71374 69955
L71430 69955
" />
<path d="M71712 69955
L71655 69926
L71627 69898
L71599 69842
L71599 69673
L71627 69617
L71655 69589
L71712 69561
L71796 69561
L71852 69589
L71880 69617
L71908 69673
L71908 69842
L71880 69898
L71852 69926
L71796 69955
L71712 69955
" />
<path d="M72162 69955
L72162 69561
" />
<path d="M72162 69673
L72190 69617
L72218 69589
L72274 69561
L72330 69561
" />
<path d="M72499 69926
L72555 69955
L72668 69955
L72724 69926
L72752 69870
L72752 69842
L72724 69786
L72668 69758
L72583 69758
L72527 69730
L72499 69673
L72499 69645
L72527 69589
L72583 69561
L72668 69561
L72724 69589
" />
</g>
<g style="fill:#000000; fill-opacity:0.0; 
stroke:#000000; stroke-width:39.3701; stroke-opacity:1; 
stroke-linecap:round; stroke-linejoin:round;">
</g>
<g style="fill:#000000; fill-opacity:0.0; 
stroke:#000000; stroke-width:59.0551; stroke-opacity:1; 
stroke-linecap:round; stroke-linejoin:round;">
<text x="70079.6" y="68802"
textLength="6527" font-size="787.402" lengthAdjust="spacingAndGlyphs"
text-anchor="start" opacity="0">Aksels Ķirsons</text>
<path d="M70221 68605
L70502 68605
" />
<path d="M70165 68773
L70362 68183
L70559 68773
" />
<path d="M70755 68773
L70755 68183
" />
<path d="M70812 68548
L70980 68773
" />
<path d="M70980 68380
L70755 68605
" />
<path d="M71205 68745
L71262 68773
L71374 68773
L71430 68745
L71458 68689
L71458 68661
L71430 68605
L71374 68577
L71290 68577
L71233 68548
L71205 68492
L71205 68464
L71233 68408
L71290 68380
L71374 68380
L71430 68408
" />
<path d="M71937 68745
L71880 68773
L71768 68773
L71712 68745
L71683 68689
L71683 68464
L71712 68408
L71768 68380
L71880 68380
L71937 68408
L71965 68464
L71965 68520
L71683 68577
" />
<path d="M72302 68773
L72246 68745
L72218 68689
L72218 68183
" />
<path d="M72499 68745
L72555 68773
L72668 68773
L72724 68745
L72752 68689
L72752 68661
L72724 68605
L72668 68577
L72583 68577
L72527 68548
L72499 68492
L72499 68464
L72527 68408
L72583 68380
L72668 68380
L72724 68408
" />
<path d="M73455 68773
L73455 68183
" />
<path d="M73793 68773
L73539 68436
" />
<path d="M73793 68183
L73455 68520
" />
<path d="M73624 68802
L73680 68830
L73708 68886
L73680 68942
L73624 68970
L73539 68970
" />
<path d="M74046 68773
L74046 68380
" />
<path d="M74046 68183
L74018 68211
L74046 68239
L74074 68211
L74046 68183
L74046 68239
" />
<path d="M74327 68773
L74327 68380
" />
<path d="M74327 68492
L74355 68436
L74383 68408
L74439 68380
L74496 68380
" />
<path d="M74664 68745
L74721 68773
L74833 68773
L74889 68745
L74917 68689
L74917 68661
L74889 68605
L74833 68577
L74749 68577
L74692 68548
L74664 68492
L74664 68464
L74692 68408
L74749 68380
L74833 68380
L74889 68408
" />
<path d="M75255 68773
L75199 68745
L75171 68717
L75142 68661
L75142 68492
L75171 68436
L75199 68408
L75255 68380
L75339 68380
L75395 68408
L75424 68436
L75452 68492
L75452 68661
L75424 68717
L75395 68745
L75339 68773
L75255 68773
" />
<path d="M75705 68380
L75705 68773
" />
<path d="M75705 68436
L75733 68408
L75789 68380
L75874 68380
L75930 68408
L75958 68464
L75958 68773
" />
<path d="M76211 68745
L76267 68773
L76380 68773
L76436 68745
L76464 68689
L76464 68661
L76436 68605
L76380 68577
L76295 68577
L76239 68548
L76211 68492
L76211 68464
L76239 68408
L76295 68380
L76380 68380
L76436 68408
" />
</g>
<g style="fill:#000000; fill-opacity:0.0; 
stroke:#000000; stroke-width:39.3701; stroke-opacity:1; 
stroke-linecap:round; stroke-linejoin:round;">
</g>
<g style="fill:#000000; fill-opacity:0.0; 
stroke:#000000; stroke-width:59.0551; stroke-opacity:1; 
stroke-linecap:round; stroke-linejoin:round;">
<text x="70079.6" y="67620.9"
textLength="6751.97" font-size="787.402" lengthAdjust="spacingAndGlyphs"
text-anchor="start" opacity="0">PCB_CAD kurss</text>
<path d="M70249 67592
L70249 67002
L70474 67002
L70530 67030
L70559 67058
L70587 67114
L70587 67199
L70559 67255
L70530 67283
L70474 67311
L70249 67311
" />
<path d="M71177 67536
L71149 67564
L71065 67592
L71009 67592
L70924 67564
L70868 67508
L70840 67452
L70812 67339
L70812 67255
L70840 67142
L70868 67086
L70924 67030
L71009 67002
L71065 67002
L71149 67030
L71177 67058
" />
<path d="M71627 67283
L71712 67311
L71740 67339
L71768 67395
L71768 67480
L71740 67536
L71712 67564
L71655 67592
L71430 67592
L71430 67002
L71627 67002
L71683 67030
L71712 67058
L71740 67114
L71740 67171
L71712 67227
L71683 67255
L71627 67283
L71430 67283
" />
<path d="M71880 67649
L72330 67649
" />
<path d="M72808 67536
L72780 67564
L72696 67592
L72640 67592
L72555 67564
L72499 67508
L72471 67452
L72443 67339
L72443 67255
L72471 67142
L72499 67086
L72555 67030
L72640 67002
L72696 67002
L72780 67030
L72808 67058
" />
<path d="M73033 67424
L73314 67424
" />
<path d="M72977 67592
L73174 67002
L73371 67592
" />
<path d="M73568 67592
L73568 67002
L73708 67002
L73793 67030
L73849 67086
L73877 67142
L73905 67255
L73905 67339
L73877 67452
L73849 67508
L73793 67564
L73708 67592
L73568 67592
" />
<path d="M74608 67592
L74608 67002
" />
<path d="M74664 67367
L74833 67592
" />
<path d="M74833 67199
L74608 67424
" />
<path d="M75339 67199
L75339 67592
" />
<path d="M75086 67199
L75086 67508
L75114 67564
L75171 67592
L75255 67592
L75311 67564
L75339 67536
" />
<path d="M75620 67592
L75620 67199
" />
<path d="M75620 67311
L75649 67255
L75677 67227
L75733 67199
L75789 67199
" />
<path d="M75958 67564
L76014 67592
L76127 67592
L76183 67564
L76211 67508
L76211 67480
L76183 67424
L76127 67395
L76042 67395
L75986 67367
L75958 67311
L75958 67283
L75986 67227
L76042 67199
L76127 67199
L76183 67227
" />
<path d="M76436 67564
L76492 67592
L76605 67592
L76661 67564
L76689 67508
L76689 67480
L76661 67424
L76605 67395
L76520 67395
L76464 67367
L76436 67311
L76436 67283
L76464 67227
L76520 67199
L76605 67199
L76661 67227
" />
</g>
<g style="fill:#000000; fill-opacity:0.0; 
stroke:#000000; stroke-width:39.3701; stroke-opacity:1; 
stroke-linecap:round; stroke-linejoin:round;">
</g>
<g style="fill:#000000; fill-opacity:0.0; 
stroke:#000000; stroke-width:59.0551; stroke-opacity:1; 
stroke-linecap:round; stroke-linejoin:round;">
<path d="M77559 75396
L77559 76577
" />
</g>
<g style="fill:#000000; fill-opacity:0.0; 
stroke:#000000; stroke-width:39.3701; stroke-opacity:1; 
stroke-linecap:round; stroke-linejoin:round;">
</g>
<g style="fill:#000000; fill-opacity:0.0; 
stroke:#000000; stroke-width:59.0551; stroke-opacity:1; 
stroke-linecap:round; stroke-linejoin:round;">
<path d="M102756 75396
L102756 77955
" />
<g >
</g>
<g style="fill:#848400; fill-opacity:0.0; 
stroke:#848400; stroke-width:59.0551; stroke-opacity:1; 
stroke-linecap:round; stroke-linejoin:round;">
</g>
<g style="fill:#848400; fill-opacity:0.0; 
stroke:#848400; stroke-width:0; stroke-opacity:1; 
stroke-linecap:round; stroke-linejoin:round;">
</g>
<g style="fill:#848400; fill-opacity:1.0; 
stroke:#848400; stroke-width:0; stroke-opacity:1; 
stroke-linecap:round; stroke-linejoin:round;">
<path style="fill:#848400; fill-opacity:1.0; 
stroke:#848400; stroke-width:0; stroke-opacity:1; 
stroke-linecap:round; stroke-linejoin:round;fill-rule:evenodd;"
d="M 49593.7,23593.7
48806.3,23593.7
48806.3,22806.3
49593.7,22806.3
Z" /> 
<circle cx="49200" cy="17294.5" r="393.701" /> 
</g>
<g >
</g>
<g style="fill:#848400; fill-opacity:1.0; 
stroke:#848400; stroke-width:0; stroke-opacity:1; 
stroke-linecap:round; stroke-linejoin:round;">
<path style="fill:#848400; fill-opacity:1.0; 
stroke:#848400; stroke-width:0; stroke-opacity:1; 
stroke-linecap:round; stroke-linejoin:round;fill-rule:evenodd;"
d="M 54506.3,24893.7
54506.3,24106.3
55293.7,24106.3
55293.7,24893.7
Z" /> 
<circle cx="60805.5" cy="24500" r="393.701" /> 
</g>
<g >
</g>
<g style="fill:#848400; fill-opacity:1.0; 
stroke:#848400; stroke-width:0; stroke-opacity:1; 
stroke-linecap:round; stroke-linejoin:round;">
<path style="fill:#848400; fill-opacity:1.0; 
stroke:#848400; stroke-width:0; stroke-opacity:1; 
stroke-linecap:round; stroke-linejoin:round;fill-rule:evenodd;"
d="M 57506.3,15806.3
58293.7,15806.3
58293.7,16593.7
57506.3,16593.7
Z" /> 
<circle cx="57900" cy="22105.5" r="393.701" /> 
</g>
<g >
</g>
<g style="fill:#848400; fill-opacity:1.0; 
stroke:#848400; stroke-width:0; stroke-opacity:1; 
stroke-linecap:round; stroke-linejoin:round;">
<circle cx="49694.5" cy="15100" r="393.701" /> 
<path style="fill:#848400; fill-opacity:1.0; 
stroke:#848400; stroke-width:0; stroke-opacity:1; 
stroke-linecap:round; stroke-linejoin:round;fill-rule:evenodd;"
d="M 55993.7,14706.3
55993.7,15493.7
55206.3,15493.7
55206.3,14706.3
Z" /> 
</g>
<g >
</g>
<g style="fill:#848400; fill-opacity:1.0; 
stroke:#848400; stroke-width:0; stroke-opacity:1; 
stroke-linecap:round; stroke-linejoin:round;">
<circle cx="62800" cy="14294.5" r="393.701" /> 
<path style="fill:#848400; fill-opacity:1.0; 
stroke:#848400; stroke-width:0; stroke-opacity:1; 
stroke-linecap:round; stroke-linejoin:round;fill-rule:evenodd;"
d="M 63193.7,20593.7
62406.3,20593.7
62406.3,19806.3
63193.7,19806.3
Z" /> 
</g>
<g >
</g>
<g style="fill:#848400; fill-opacity:1.0; 
stroke:#848400; stroke-width:0; stroke-opacity:1; 
stroke-linecap:round; stroke-linejoin:round;">
<circle cx="51700" cy="22100" r="314.961" /> 
<circle cx="51700" cy="18100" r="314.961" /> 
</g>
<g style="fill:#848400; fill-opacity:1.0; 
stroke:#848400; stroke-width:39.3701; stroke-opacity:1; 
stroke-linecap:round; stroke-linejoin:round;">
</g>
<g >
</g>
<g style="fill:#848400; fill-opacity:1.0; 
stroke:#848400; stroke-width:39.3701; stroke-opacity:1; 
stroke-linecap:round; stroke-linejoin:round;">
</g>
<g style="fill:#848400; fill-opacity:1.0; 
stroke:#848400; stroke-width:0; stroke-opacity:1; 
stroke-linecap:round; stroke-linejoin:round;">
<circle cx="51800" cy="25100" r="314.961" /> 
</g>
<g style="fill:#848400; fill-opacity:1.0; 
stroke:#848400; stroke-width:39.3701; stroke-opacity:1; 
stroke-linecap:round; stroke-linejoin:round;">
</g>
<g style="fill:#848400; fill-opacity:1.0; 
stroke:#848400; stroke-width:0; stroke-opacity:1; 
stroke-linecap:round; stroke-linejoin:round;">
<circle cx="47800" cy="25100" r="314.961" /> 
</g>
<g >
</g>
<g style="fill:#848400; fill-opacity:1.0; 
stroke:#848400; stroke-width:0; stroke-opacity:1; 
stroke-linecap:round; stroke-linejoin:round;">
<circle cx="55500" cy="18100" r="314.961" /> 
</g>
<g style="fill:#848400; fill-opacity:1.0; 
stroke:#848400; stroke-width:39.3701; stroke-opacity:1; 
stroke-linecap:round; stroke-linejoin:round;">
</g>
<g style="fill:#848400; fill-opacity:1.0; 
stroke:#848400; stroke-width:0; stroke-opacity:1; 
stroke-linecap:round; stroke-linejoin:round;">
<circle cx="55500" cy="22100" r="314.961" /> 
</g>
<g >
</g>
<g style="fill:#848400; fill-opacity:1.0; 
stroke:#848400; stroke-width:0; stroke-opacity:1; 
stroke-linecap:round; stroke-linejoin:round;">
<circle cx="53400" cy="25300" r="314.961" /> 
</g>
<g style="fill:#848400; fill-opacity:1.0; 
stroke:#848400; stroke-width:39.3701; stroke-opacity:1; 
stroke-linecap:round; stroke-linejoin:round;">
</g>
<g style="fill:#848400; fill-opacity:1.0; 
stroke:#848400; stroke-width:0; stroke-opacity:1; 
stroke-linecap:round; stroke-linejoin:round;">
<circle cx="53400" cy="21300" r="314.961" /> 
</g>
<g >
</g>
<g style="fill:#848400; fill-opacity:1.0; 
stroke:#848400; stroke-width:0; stroke-opacity:1; 
stroke-linecap:round; stroke-linejoin:round;">
<circle cx="60300" cy="22100" r="314.961" /> 
<circle cx="60300" cy="18100" r="314.961" /> 
</g>
<g style="fill:#848400; fill-opacity:1.0; 
stroke:#848400; stroke-width:39.3701; stroke-opacity:1; 
stroke-linecap:round; stroke-linejoin:round;">
</g>
<g >
</g>
<g style="fill:#848400; fill-opacity:1.0; 
stroke:#848400; stroke-width:39.3701; stroke-opacity:1; 
stroke-linecap:round; stroke-linejoin:round;">
</g>
<g style="fill:#848400; fill-opacity:1.0; 
stroke:#848400; stroke-width:0; stroke-opacity:1; 
stroke-linecap:round; stroke-linejoin:round;">
<path style="fill:#848400; fill-opacity:1.0; 
stroke:#848400; stroke-width:0; stroke-opacity:1; 
stroke-linecap:round; stroke-linejoin:round;fill-rule:evenodd;"
d="M 45990.6,24190.6
44809.4,24190.6
44809.4,23009.4
45990.6,23009.4
Z" /> 
<circle cx="45400" cy="21600" r="590.551" /> 
</g>
<g style="fill:#848400; fill-opacity:1.0; 
stroke:#848400; stroke-width:39.3701; stroke-opacity:1; 
stroke-linecap:round; stroke-linejoin:round;">
</g>
<g >
</g>
<g style="fill:#848400; fill-opacity:1.0; 
stroke:#848400; stroke-width:39.3701; stroke-opacity:1; 
stroke-linecap:round; stroke-linejoin:round;">
</g>
<g style="fill:#848400; fill-opacity:1.0; 
stroke:#848400; stroke-width:0; stroke-opacity:1; 
stroke-linecap:round; stroke-linejoin:round;">
<path style="fill:#848400; fill-opacity:1.0; 
stroke:#848400; stroke-width:0; stroke-opacity:1; 
stroke-linecap:round; stroke-linejoin:round;fill-rule:evenodd;"
d="M 45990.6,18490.6
44809.4,18490.6
44809.4,17309.4
45990.6,17309.4
Z" /> 
<circle cx="45400" cy="15900" r="590.551" /> 
</g>
<g style="fill:#848400; fill-opacity:1.0; 
stroke:#848400; stroke-width:39.3701; stroke-opacity:1; 
stroke-linecap:round; stroke-linejoin:round;">
</g>
<g >
</g>
<g style="fill:#848400; fill-opacity:1.0; 
stroke:#848400; stroke-width:39.3701; stroke-opacity:1; 
stroke-linecap:round; stroke-linejoin:round;">
</g>
<g style="fill:#848400; fill-opacity:1.0; 
stroke:#848400; stroke-width:0; stroke-opacity:1; 
stroke-linecap:round; stroke-linejoin:round;">
<circle cx="63400" cy="24500" r="590.551" /> 
</g>
<g style="fill:#848400; fill-opacity:1.0; 
stroke:#848400; stroke-width:39.3701; stroke-opacity:1; 
stroke-linecap:round; stroke-linejoin:round;">
</g>
<g style="fill:#848400; fill-opacity:1.0; 
stroke:#848400; stroke-width:0; stroke-opacity:1; 
stroke-linecap:round; stroke-linejoin:round;">
<path style="fill:#848400; fill-opacity:1.0; 
stroke:#848400; stroke-width:0; stroke-opacity:1; 
stroke-linecap:round; stroke-linejoin:round;fill-rule:evenodd;"
d="M 62809.4,21909.4
63990.6,21909.4
63990.6,23090.6
62809.4,23090.6
Z" /> 
</g>
<g >
</g>
<g style="fill:#848400; fill-opacity:1.0; 
stroke:#848400; stroke-width:0; stroke-opacity:1; 
stroke-linecap:round; stroke-linejoin:round;">
<path style="fill:#848400; fill-opacity:1.0; 
stroke:#848400; stroke-width:0; stroke-opacity:1; 
stroke-linecap:round; stroke-linejoin:round;fill-rule:evenodd;"
d="M 53204.7,18193.3
53795.3,18193.3
53795.3,18606.7
53204.7,18606.7
Z" /> 
</g>
<g style="fill:#848400; fill-opacity:1.0; 
stroke:#848400; stroke-width:413.386; stroke-opacity:1; 
stroke-linecap:round; stroke-linejoin:round;">
</g>
<g style="fill:#848400; fill-opacity:0.0; 
stroke:#848400; stroke-width:413.386; stroke-opacity:1; 
stroke-linecap:round; stroke-linejoin:round;">
<path d="M53588 19400
L53411 19400
" />
<path d="M53588 18900
L53411 18900
" />
</g>
<g >
</g>
<g style="fill:#848400; fill-opacity:0.0; 
stroke:#848400; stroke-width:413.386; stroke-opacity:1; 
stroke-linecap:round; stroke-linejoin:round;">
<path d="M60311 15900
L60488 15900
" />
<path d="M60311 15400
L60488 15400
" />
</g>
<g style="fill:#848400; fill-opacity:0.0; 
stroke:#848400; stroke-width:0; stroke-opacity:1; 
stroke-linecap:round; stroke-linejoin:round;">
</g>
<g style="fill:#848400; fill-opacity:1.0; 
stroke:#848400; stroke-width:0; stroke-opacity:1; 
stroke-linecap:round; stroke-linejoin:round;">
<path style="fill:#848400; fill-opacity:1.0; 
stroke:#848400; stroke-width:0; stroke-opacity:1; 
stroke-linecap:round; stroke-linejoin:round;fill-rule:evenodd;"
d="M 60695.3,16606.7
60104.7,16606.7
60104.7,16193.3
60695.3,16193.3
Z" /> 
</g>
<g >
</g>
<g >
</g>
<g >
</g>
<g style="fill:#008400; fill-opacity:1.0; 
stroke:#008400; stroke-width:0; stroke-opacity:1; 
stroke-linecap:round; stroke-linejoin:round;">
<g >
</g>
<g style="fill:#008400; fill-opacity:1.0; 
stroke:#008400; stroke-width:100; stroke-opacity:1; 
stroke-linecap:round; stroke-linejoin:round;">
<path style="fill:#008400; fill-opacity:1.0; 
stroke:#008400; stroke-width:100; stroke-opacity:1; 
stroke-linecap:round; stroke-linejoin:round;fill-rule:evenodd;"
d="M 62612.2,13675.5
62495.1,13724
62389.7,13794.5
62300,13884.2
62229.6,13989.6
62181,14106.7
62156.3,14231.1
62156.3,14357.9
62181,14482.2
62229.6,14599.4
62300,14704.8
62389.7,14794.5
62495.1,14864.9
62612.2,14913.5
62736.6,14938.2
62863.4,14938.2
62987.8,14913.5
63104.9,14864.9
63210.3,14794.5
63300,14704.8
63370.4,14599.4
63419,14482.2
63443.7,14357.9
63443.7,14231.1
63419,14106.7
63370.4,13989.6
63300,13884.2
63210.3,13794.5
63104.9,13724
62987.8,13675.5
62908.9,13659.8
65387.3,13659.8
65465.8,13667.5
65529.2,13686.7
65587.6,13717.7
65638.8,13759.5
65681,13810.5
65712.4,13868.7
65732,13931.9
65740.2,14009.6
65740.2,26187.3
65732.5,26265.8
65713.3,26329.1
65682.3,26387.6
65640.5,26438.8
65589.5,26481
65531.3,26512.4
65468.1,26532
65390.4,26540.2
43512.7,26540.2
43434.2,26532.5
43370.9,26513.3
43312.4,26482.3
43261.2,26440.5
43219,26389.5
43187.6,26331.3
43168,26268.1
43159.8,26190.4
43159.8,25237.4
47252,25237.4
47268,25290.2
47315.3,25390.3
47381.3,25479.3
47463.3,25553.7
47558.3,25610.7
47662.6,25648
47750,25600.2
47750,25150
47850,25150
47850,25600.2
47937.4,25648
48041.7,25610.7
48136.7,25553.7
48218.7,25479.3
48284.7,25390.3
48332,25290.2
48348,25237.4
48300,25150
47850,25150
47750,25150
47300,25150
47252,25237.4
43159.8,25237.4
43159.8,24962.6
47252,24962.6
47300,25050
47750,25050
47750,24599.8
47850,24599.8
47850,25050
48300,25050
48303.1,25044.4
51235,25044.4
51235,25155.6
51256.8,25264.8
51299.3,25367.6
51361.2,25460.1
51439.9,25538.8
51532.4,25600.7
51635.2,25643.2
51744.4,25665
51855.6,25665
51964.8,25643.2
52067.6,25600.7
52160.1,25538.8
52238.8,25460.1
52300.7,25367.6
52343.2,25264.8
52347.3,25244.4
52835,25244.4
52835,25355.6
52856.8,25464.8
52899.3,25567.6
52961.2,25660.1
53039.9,25738.8
53132.4,25800.7
53235.2,25843.2
53344.4,25865
53455.6,25865
53564.8,25843.2
53667.6,25800.7
53760.1,25738.8
53838.8,25660.1
53900.7,25567.6
53943.2,25464.8
53965,25355.6
53965,25244.4
53943.2,25135.2
53900.7,25032.4
53838.8,24939.9
53760.1,24861.2
53667.6,24799.3
53564.8,24756.8
53455.6,24735
53344.4,24735
53235.2,24756.8
53132.4,24799.3
53039.9,24861.2
52961.2,24939.9
52899.3,25032.4
52856.8,25135.2
52835,25244.4
52347.3,25244.4
52365,25155.6
52365,25044.4
52343.2,24935.2
52300.7,24832.4
52238.8,24739.9
52160.1,24661.2
52067.6,24599.3
51964.8,24556.8
51855.6,24535
51744.4,24535
51635.2,24556.8
51532.4,24599.3
51439.9,24661.2
51361.2,24739.9
51299.3,24832.4
51256.8,24935.2
51235,25044.4
48303.1,25044.4
48348,24962.6
48332,24909.8
48284.7,24809.7
48218.7,24720.7
48136.7,24646.3
48041.7,24589.3
47937.4,24552
47850,24599.8
47750,24599.8
47662.6,24552
47558.3,24589.3
47463.3,24646.3
47381.3,24720.7
47315.3,24809.7
47268,24909.8
47252,24962.6
43159.8,24962.6
43159.8,24190.6
44558.2,24190.6
44563.1,24239.6
44577.4,24286.7
44600.6,24330.1
44631.8,24368.2
44669.9,24399.4
44713.3,24422.6
44760.4,24436.9
44809.4,24441.8
45287.5,24440.6
45350,24378.1
45350,23650
45450,23650
45450,24378.1
45512.5,24440.6
45990.6,24441.8
46039.6,24436.9
46086.7,24422.6
46130.1,24399.4
46168.2,24368.2
46199.4,24330.1
46222.6,24286.7
46236.9,24239.6
46241.8,24190.6
46241.5,24106.3
54255.1,24106.3
54255.1,24893.7
54259.9,24942.7
54274.2,24989.8
54297.4,25033.3
54328.7,25071.3
54366.7,25102.6
54410.2,25125.8
54457.3,25140.1
54506.3,25144.9
55293.7,25144.9
55342.7,25140.1
55389.8,25125.8
55433.3,25102.6
55471.3,25071.3
55502.6,25033.3
55525.8,24989.8
55540.1,24942.7
55544.9,24893.7
55544.9,24649.8
60179.5,24649.8
60201.8,24723.3
60256.9,24836.8
60333.2,24937.3
60427.6,25021.1
60536.5,25084.8
60655.7,25126
60755.5,25079.3
60755.5,24550
60855.5,24550
60855.5,25079.3
60955.3,25126
61067.4,25087.3
62883.4,25087.3
62944.9,25211.5
63092.4,25286.6
63251.8,25331.5
63416.9,25344.4
63581.3,25324.9
63738.7,25273.7
63855.1,25211.5
63916.6,25087.3
63400,24570.7
62883.4,25087.3
61067.4,25087.3
61074.5,25084.8
61183.5,25021.1
61277.9,24937.3
61354.1,24836.8
61409.3,24723.3
61431.5,24649.8
61384.6,24550
60855.5,24550
60755.5,24550
60226.5,24550
60179.5,24649.8
55544.9,24649.8
55544.9,24516.9
62555.6,24516.9
62575.1,24681.3
62626.3,24838.7
62688.5,24955.1
62812.7,25016.6
63329.3,24500
63470.7,24500
63987.3,25016.6
64111.5,24955.1
64186.6,24807.6
64231.5,24648.2
64244.4,24483.1
64224.9,24318.7
64173.7,24161.3
64111.5,24044.9
63987.3,23983.4
63470.7,24500
63329.3,24500
62812.7,23983.4
62688.5,24044.9
62613.4,24192.4
62568.5,24351.8
62555.6,24516.9
55544.9,24516.9
55544.9,24350.2
60179.5,24350.2
60226.5,24450
60755.5,24450
60755.5,23920.7
60855.5,23920.7
60855.5,24450
61384.6,24450
61431.5,24350.2
61409.3,24276.7
61354.1,24163.2
61277.9,24062.7
61183.5,23978.9
61074.5,23915.2
61067.4,23912.7
62883.4,23912.7
63400,24429.3
63916.6,23912.7
63855.1,23788.5
63707.6,23713.4
63548.2,23668.5
63383.1,23655.6
63218.7,23675.1
63061.3,23726.3
62944.9,23788.5
62883.4,23912.7
61067.4,23912.7
60955.3,23874
60855.5,23920.7
60755.5,23920.7
60655.7,23874
60536.5,23915.2
60427.6,23978.9
60333.2,24062.7
60256.9,24163.2
60201.8,24276.7
60179.5,24350.2
55544.9,24350.2
55544.9,24106.3
55540.1,24057.3
55525.8,24010.2
55502.6,23966.7
55471.3,23928.7
55433.3,23897.4
55389.8,23874.2
55342.7,23859.9
55293.7,23855.1
54506.3,23855.1
54457.3,23859.9
54410.2,23874.2
54366.7,23897.4
54328.7,23928.7
54297.4,23966.7
54274.2,24010.2
54259.9,24057.3
54255.1,24106.3
46241.5,24106.3
46240.6,23712.5
46178.1,23650
45450,23650
45350,23650
44621.9,23650
44559.4,23712.5
44558.2,24190.6
43159.8,24190.6
43159.8,23009.4
44558.2,23009.4
44559.4,23487.5
44621.9,23550
45350,23550
45350,22821.9
45450,22821.9
45450,23550
46178.1,23550
46240.6,23487.5
46241.8,23009.4
46236.9,22960.4
46222.6,22913.3
46199.4,22869.9
46168.2,22831.8
46137.1,22806.3
48555.1,22806.3
48555.1,23593.7
48559.9,23642.7
48574.2,23689.8
48597.4,23733.3
48628.7,23771.3
48666.7,23802.6
48710.2,23825.8
48757.3,23840.1
48806.3,23844.9
49593.7,23844.9
49642.7,23840.1
49689.8,23825.8
49733.3,23802.6
49771.3,23771.3
49802.6,23733.3
49825.8,23689.8
49840.1,23642.7
49844.9,23593.7
49844.9,22806.3
49840.1,22757.3
49825.8,22710.2
49802.6,22666.7
49771.3,22628.7
49733.3,22597.4
49689.8,22574.2
49642.7,22559.9
49593.7,22555.1
48806.3,22555.1
48757.3,22559.9
48710.2,22574.2
48666.7,22597.4
48628.7,22628.7
48597.4,22666.7
48574.2,22710.2
48559.9,22757.3
48555.1,22806.3
46137.1,22806.3
46130.1,22800.6
46086.7,22777.4
46039.6,22763.1
45990.6,22758.2
45512.5,22759.4
45450,22821.9
45350,22821.9
45287.5,22759.4
44809.4,22758.2
44760.4,22763.1
44713.3,22777.4
44669.9,22800.6
44631.8,22831.8
44600.6,22869.9
44577.4,22913.3
44563.1,22960.4
44558.2,23009.4
43159.8,23009.4
43159.8,21517.2
44559.4,21517.2
44559.4,21682.8
44591.8,21845.2
44655.1,21998.2
44747.1,22135.8
44864.2,22252.9
45001.8,22344.9
45154.8,22408.2
45317.2,22440.6
45482.8,22440.6
45645.2,22408.2
45798.2,22344.9
45935.8,22252.9
46052.9,22135.8
46114,22044.4
51135,22044.4
51135,22155.6
51156.8,22264.8
51199.3,22367.6
51261.2,22460.1
51339.9,22538.8
51432.4,22600.7
51535.2,22643.2
51644.4,22665
51755.6,22665
51864.8,22643.2
51967.6,22600.7
52060.1,22538.8
52138.8,22460.1
52200.7,22367.6
52243.2,22264.8
52265,22155.6
52265,22044.4
54935,22044.4
54935,22155.6
54956.8,22264.8
54999.3,22367.6
55061.2,22460.1
55139.9,22538.8
55232.4,22600.7
55335.2,22643.2
55444.4,22665
55555.6,22665
55664.8,22643.2
55767.6,22600.7
55860.1,22538.8
55938.8,22460.1
56000.7,22367.6
56043.2,22264.8
56065,22155.6
56065,22044.4
56064.5,22042.1
57256.3,22042.1
57256.3,22168.9
57281,22293.3
57329.6,22410.4
57400,22515.8
57489.7,22605.5
57595.1,22676
57712.2,22724.5
57836.6,22749.2
57963.4,22749.2
58087.8,22724.5
58204.9,22676
58310.3,22605.5
58400,22515.8
58470.4,22410.4
58519,22293.3
58530.1,22237.4
59752,22237.4
59789.3,22341.7
59846.3,22436.7
59920.7,22518.7
60009.7,22584.7
60109.8,22632
60162.6,22648
60250,22600
60250,22150
60350,22150
60350,22600
60437.4,22648
60490.2,22632
60590.3,22584.7
60679.3,22518.7
60753.7,22436.7
60810.7,22341.7
60848,22237.4
60800.2,22150
60350,22150
60250,22150
59799.8,22150
59752,22237.4
58530.1,22237.4
58543.7,22168.9
58543.7,22042.1
58527.9,21962.6
59752,21962.6
59799.8,22050
60250,22050
60250,21600
60350,21600
60350,22050
60800.2,22050
60848,21962.6
60829,21909.4
62558.2,21909.4
62558.2,23090.6
62563.1,23139.6
62577.4,23186.7
62600.6,23230.1
62631.8,23268.2
62669.9,23299.4
62713.3,23322.6
62760.4,23336.9
62809.4,23341.8
63990.6,23341.8
64039.6,23336.9
64086.7,23322.6
64130.1,23299.4
64168.2,23268.2
64199.4,23230.1
64222.6,23186.7
64236.9,23139.6
64241.8,23090.6
64241.8,21909.4
64236.9,21860.4
64222.6,21813.3
64199.4,21769.9
64168.2,21731.8
64130.1,21700.6
64086.7,21677.4
64039.6,21663.1
63990.6,21658.2
62809.4,21658.2
62760.4,21663.1
62713.3,21677.4
62669.9,21700.6
62631.8,21731.8
62600.6,21769.9
62577.4,21813.3
62563.1,21860.4
62558.2,21909.4
60829,21909.4
60810.7,21858.3
60753.7,21763.3
60679.3,21681.3
60590.3,21615.3
60490.2,21568
60437.4,21552
60350,21600
60250,21600
60162.6,21552
60109.8,21568
60009.7,21615.3
59920.7,21681.3
59846.3,21763.3
59789.3,21858.3
59752,21962.6
58527.9,21962.6
58519,21917.8
58470.4,21800.6
58400,21695.2
58310.3,21605.5
58204.9,21535.1
58087.8,21486.5
57963.4,21461.8
57836.6,21461.8
57712.2,21486.5
57595.1,21535.1
57489.7,21605.5
57400,21695.2
57329.6,21800.6
57281,21917.8
57256.3,22042.1
56064.5,22042.1
56043.2,21935.2
56000.7,21832.4
55938.8,21739.9
55860.1,21661.2
55767.6,21599.3
55664.8,21556.8
55555.6,21535
55444.4,21535
55335.2,21556.8
55232.4,21599.3
55139.9,21661.2
55061.2,21739.9
54999.3,21832.4
54956.8,21935.2
54935,22044.4
52265,22044.4
52243.2,21935.2
52200.7,21832.4
52138.8,21739.9
52060.1,21661.2
51967.6,21599.3
51864.8,21556.8
51755.6,21535
51644.4,21535
51535.2,21556.8
51432.4,21599.3
51339.9,21661.2
51261.2,21739.9
51199.3,21832.4
51156.8,21935.2
51135,22044.4
46114,22044.4
46144.9,21998.2
46208.2,21845.2
46240.6,21682.8
46240.6,21517.2
46224.7,21437.4
52852,21437.4
52889.3,21541.7
52946.3,21636.7
53020.7,21718.7
53109.7,21784.7
53209.8,21832
53262.6,21848
53350,21800
53350,21350
53450,21350
53450,21800
53537.4,21848
53590.2,21832
53690.3,21784.7
53779.3,21718.7
53853.7,21636.7
53910.7,21541.7
53948,21437.4
53900.2,21350
53450,21350
53350,21350
52899.8,21350
52852,21437.4
46224.7,21437.4
46208.2,21354.8
46144.9,21201.8
46118.6,21162.6
52852,21162.6
52899.8,21250
53350,21250
53350,20800
53450,20800
53450,21250
53900.2,21250
53948,21162.6
53910.7,21058.3
53853.7,20963.3
53779.3,20881.3
53690.3,20815.3
53590.2,20768
53537.4,20752
53450,20800
53350,20800
53262.6,20752
53209.8,20768
53109.7,20815.3
53020.7,20881.3
52946.3,20963.3
52889.3,21058.3
52852,21162.6
46118.6,21162.6
46052.9,21064.2
45935.8,20947.1
45798.2,20855.1
45645.2,20791.8
45482.8,20759.4
45317.2,20759.4
45154.8,20791.8
45001.8,20855.1
44864.2,20947.1
44747.1,21064.2
44655.1,21201.8
44591.8,21354.8
44559.4,21517.2
43159.8,21517.2
43159.8,18900
52952.5,18900
52961.3,18989.5
52987.4,19075.6
53027.2,19150
52987.4,19224.4
52961.3,19310.5
52952.5,19400
52961.3,19489.5
52987.4,19575.6
53029.9,19655
53086.9,19724.5
53156.5,19781.6
53235.8,19824
53321.9,19850.1
53389,19856.7
53611,19856.7
53678.1,19850.1
53764.2,19824
53797.3,19806.3
62155.1,19806.3
62155.1,20593.7
62159.9,20642.7
62174.2,20689.8
62197.4,20733.3
62228.7,20771.3
62266.7,20802.6
62310.2,20825.8
62357.3,20840.1
62406.3,20844.9
63193.7,20844.9
63242.7,20840.1
63289.8,20825.8
63333.3,20802.6
63371.3,20771.3
63402.6,20733.3
63425.8,20689.8
63440.1,20642.7
63444.9,20593.7
63444.9,19806.3
63440.1,19757.3
63425.8,19710.2
63402.6,19666.7
63371.3,19628.7
63333.3,19597.4
63289.8,19574.2
63242.7,19559.9
63193.7,19555.1
62406.3,19555.1
62357.3,19559.9
62310.2,19574.2
62266.7,19597.4
62228.7,19628.7
62197.4,19666.7
62174.2,19710.2
62159.9,19757.3
62155.1,19806.3
53797.3,19806.3
53843.5,19781.6
53913.1,19724.5
53970.1,19655
54012.6,19575.6
54038.7,19489.5
54047.5,19400
54038.7,19310.5
54012.6,19224.4
53972.8,19150
54012.6,19075.6
54038.7,18989.5
54047.5,18900
54038.7,18810.5
54013.7,18728.3
54027.4,18702.8
54041.7,18655.7
54046.5,18606.7
54046.5,18193.3
54041.7,18144.3
54027.4,18097.2
54004.1,18053.7
53996.4,18044.4
54935,18044.4
54935,18155.6
54956.8,18264.8
54999.3,18367.6
55061.2,18460.1
55139.9,18538.8
55232.4,18600.7
55335.2,18643.2
55444.4,18665
55555.6,18665
55664.8,18643.2
55767.6,18600.7
55860.1,18538.8
55938.8,18460.1
56000.7,18367.6
56043.2,18264.8
56065,18155.6
56065,18044.4
59735,18044.4
59735,18155.6
59756.8,18264.8
59799.3,18367.6
59861.2,18460.1
59939.9,18538.8
60032.4,18600.7
60135.2,18643.2
60244.4,18665
60355.6,18665
60464.8,18643.2
60567.6,18600.7
60660.1,18538.8
60738.8,18460.1
60800.7,18367.6
60843.2,18264.8
60865,18155.6
60865,18044.4
60843.2,17935.2
60800.7,17832.4
60738.8,17739.9
60660.1,17661.2
60567.6,17599.3
60464.8,17556.8
60355.6,17535
60244.4,17535
60135.2,17556.8
60032.4,17599.3
59939.9,17661.2
59861.2,17739.9
59799.3,17832.4
59756.8,17935.2
59735,18044.4
56065,18044.4
56043.2,17935.2
56000.7,17832.4
55938.8,17739.9
55860.1,17661.2
55767.6,17599.3
55664.8,17556.8
55555.6,17535
55444.4,17535
55335.2,17556.8
55232.4,17599.3
55139.9,17661.2
55061.2,17739.9
54999.3,17832.4
54956.8,17935.2
54935,18044.4
53996.4,18044.4
53972.9,18015.7
53934.8,17984.4
53891.4,17961.2
53844.3,17946.9
53795.3,17942.1
53204.7,17942.1
53155.7,17946.9
53108.6,17961.2
53065.2,17984.4
53027.1,18015.7
52995.9,18053.7
52972.6,18097.2
52958.3,18144.3
52953.5,18193.3
52953.5,18606.7
52958.3,18655.7
52972.6,18702.8
52986.3,18728.3
52961.3,18810.5
52952.5,18900
43159.8,18900
43159.8,18490.6
44558.2,18490.6
44563.1,18539.6
44577.4,18586.7
44600.6,18630.1
44631.8,18668.2
44669.9,18699.4
44713.3,18722.6
44760.4,18736.9
44809.4,18741.8
45287.5,18740.6
45350,18678.1
45350,17950
45450,17950
45450,18678.1
45512.5,18740.6
45990.6,18741.8
46039.6,18736.9
46086.7,18722.6
46130.1,18699.4
46168.2,18668.2
46199.4,18630.1
46222.6,18586.7
46236.9,18539.6
46241.8,18490.6
46240.6,18044.4
51135,18044.4
51135,18155.6
51156.8,18264.8
51199.3,18367.6
51261.2,18460.1
51339.9,18538.8
51432.4,18600.7
51535.2,18643.2
51644.4,18665
51755.6,18665
51864.8,18643.2
51967.6,18600.7
52060.1,18538.8
52138.8,18460.1
52200.7,18367.6
52243.2,18264.8
52265,18155.6
52265,18044.4
52243.2,17935.2
52200.7,17832.4
52138.8,17739.9
52060.1,17661.2
51967.6,17599.3
51864.8,17556.8
51755.6,17535
51644.4,17535
51535.2,17556.8
51432.4,17599.3
51339.9,17661.2
51261.2,17739.9
51199.3,17832.4
51156.8,17935.2
51135,18044.4
46240.6,18044.4
46240.6,18012.5
46178.1,17950
45450,17950
45350,17950
44621.9,17950
44559.4,18012.5
44558.2,18490.6
43159.8,18490.6
43159.8,17309.4
44558.2,17309.4
44559.4,17787.5
44621.9,17850
45350,17850
45350,17121.9
45450,17121.9
45450,17850
46178.1,17850
46240.6,17787.5
46241.8,17309.4
46236.9,17260.4
46228,17231.1
48556.3,17231.1
48556.3,17357.9
48581,17482.2
48629.6,17599.4
48700,17704.8
48789.7,17794.5
48895.1,17864.9
49012.2,17913.5
49136.6,17938.2
49263.4,17938.2
49387.8,17913.5
49504.9,17864.9
49610.3,17794.5
49700,17704.8
49770.4,17599.4
49819,17482.2
49843.7,17357.9
49843.7,17231.1
49819,17106.7
49770.4,16989.6
49700,16884.2
49610.3,16794.5
49504.9,16724
49387.8,16675.5
49263.4,16650.8
49136.6,16650.8
49012.2,16675.5
48895.1,16724
48789.7,16794.5
48700,16884.2
48629.6,16989.6
48581,17106.7
48556.3,17231.1
46228,17231.1
46222.6,17213.3
46199.4,17169.9
46168.2,17131.8
46130.1,17100.6
46086.7,17077.4
46039.6,17063.1
45990.6,17058.2
45512.5,17059.4
45450,17121.9
45350,17121.9
45287.5,17059.4
44809.4,17058.2
44760.4,17063.1
44713.3,17077.4
44669.9,17100.6
44631.8,17131.8
44600.6,17169.9
44577.4,17213.3
44563.1,17260.4
44558.2,17309.4
43159.8,17309.4
43159.8,15817.2
44559.4,15817.2
44559.4,15982.8
44591.8,16145.2
44655.1,16298.2
44747.1,16435.8
44864.2,16552.9
45001.8,16644.9
45154.8,16708.2
45317.2,16740.6
45482.8,16740.6
45645.2,16708.2
45798.2,16644.9
45935.8,16552.9
46052.9,16435.8
46144.9,16298.2
46208.2,16145.2
46240.6,15982.8
46240.6,15817.2
46238.4,15806.3
57255.1,15806.3
57255.1,16593.7
57259.9,16642.7
57274.2,16689.8
57297.4,16733.3
57328.7,16771.3
57366.7,16802.6
57410.2,16825.8
57457.3,16840.1
57506.3,16844.9
58293.7,16844.9
58342.7,16840.1
58389.8,16825.8
58433.3,16802.6
58471.3,16771.3
58502.6,16733.3
58525.8,16689.8
58540.1,16642.7
58544.9,16593.7
58544.9,15806.3
58540.1,15757.3
58525.8,15710.2
58502.6,15666.7
58471.3,15628.7
58433.3,15597.4
58389.8,15574.2
58342.7,15559.9
58293.7,15555.1
57506.3,15555.1
57457.3,15559.9
57410.2,15574.2
57366.7,15597.4
57328.7,15628.7
57297.4,15666.7
57274.2,15710.2
57259.9,15757.3
57255.1,15806.3
46238.4,15806.3
46208.2,15654.8
46144.9,15501.8
46052.9,15364.2
45935.8,15247.1
45798.2,15155.1
45645.2,15091.8
45482.8,15059.4
45317.2,15059.4
45154.8,15091.8
45001.8,15155.1
44864.2,15247.1
44747.1,15364.2
44655.1,15501.8
44591.8,15654.8
44559.4,15817.2
43159.8,15817.2
43159.8,15036.6
49050.8,15036.6
49050.8,15163.4
49075.5,15287.8
49124,15404.9
49194.5,15510.3
49284.2,15600
49389.6,15670.4
49506.7,15719
49631.1,15743.7
49757.9,15743.7
49882.2,15719
49999.4,15670.4
50104.8,15600
50194.5,15510.3
50205.6,15493.7
54955.1,15493.7
54959.9,15542.7
54974.2,15589.8
54997.4,15633.3
55028.7,15671.3
55066.7,15702.6
55110.2,15725.8
55157.3,15740.1
55206.3,15744.9
55487.5,15743.7
55550,15681.2
55550,15150
55650,15150
55650,15681.2
55712.5,15743.7
55993.7,15744.9
56042.7,15740.1
56089.8,15725.8
56133.3,15702.6
56171.3,15671.3
56202.6,15633.3
56225.8,15589.8
56240.1,15542.7
56244.9,15493.7
56244.5,15400
59852.5,15400
59861.3,15489.5
59887.4,15575.6
59927.2,15650
59887.4,15724.4
59861.3,15810.5
59852.5,15900
59861.3,15989.5
59886.3,16071.7
59872.6,16097.2
59858.3,16144.3
59853.5,16193.3
59853.5,16606.7
59858.3,16655.7
59872.6,16702.8
59895.9,16746.3
59927.1,16784.3
59965.2,16815.6
60008.6,16838.8
60055.7,16853.1
60104.7,16857.9
60695.3,16857.9
60744.3,16853.1
60791.4,16838.8
60834.8,16815.6
60872.9,16784.3
60904.1,16746.3
60927.4,16702.8
60941.7,16655.7
60946.5,16606.7
60946.5,16193.3
60941.7,16144.3
60927.4,16097.2
60913.7,16071.7
60938.7,15989.5
60947.5,15900
60938.7,15810.5
60912.6,15724.4
60872.8,15650
60912.6,15575.6
60938.7,15489.5
60947.5,15400
60938.7,15310.5
60912.6,15224.4
60870.1,15145
60813.1,15075.5
60743.5,15018.4
60664.2,14976
60578.1,14949.9
60511,14943.3
60289,14943.3
60221.9,14949.9
60135.8,14976
60056.5,15018.4
59986.9,15075.5
59929.9,15145
59887.4,15224.4
59861.3,15310.5
59852.5,15400
56244.5,15400
56243.7,15212.5
56181.2,15150
55650,15150
55550,15150
55018.8,15150
54956.3,15212.5
54955.1,15493.7
50205.6,15493.7
50264.9,15404.9
50313.5,15287.8
50338.2,15163.4
50338.2,15036.6
50313.5,14912.2
50264.9,14795.1
50205.6,14706.3
54955.1,14706.3
54956.3,14987.5
55018.8,15050
55550,15050
55550,14518.8
55650,14518.8
55650,15050
56181.2,15050
56243.7,14987.5
56244.9,14706.3
56240.1,14657.3
56225.8,14610.2
56202.6,14566.7
56171.3,14528.7
56133.3,14497.4
56089.8,14474.2
56042.7,14459.9
55993.7,14455.1
55712.5,14456.3
55650,14518.8
55550,14518.8
55487.5,14456.3
55206.3,14455.1
55157.3,14459.9
55110.2,14474.2
55066.7,14497.4
55028.7,14528.7
54997.4,14566.7
54974.2,14610.2
54959.9,14657.3
54955.1,14706.3
50205.6,14706.3
50194.5,14689.7
50104.8,14600
49999.4,14529.6
49882.2,14481
49757.9,14456.3
49631.1,14456.3
49506.7,14481
49389.6,14529.6
49284.2,14600
49194.5,14689.7
49124,14795.1
49075.5,14912.2
49050.8,15036.6
43159.8,15036.6
43159.8,14012.7
43167.5,13934.2
43186.7,13870.9
43217.7,13812.4
43259.5,13761.2
43310.5,13719
43368.7,13687.6
43431.9,13668
43509.6,13659.8
62691.1,13659.8
Z" /> 
</g>
</g>
</g>
<g style="fill:#FFFFFF; fill-opacity:1.0; 
stroke:#FFFFFF; stroke-width:100; stroke-opacity:1; 
stroke-linecap:round; stroke-linejoin:round;">
</g>
<g style="fill:#FFFFFF; fill-opacity:1.0; 
stroke:#FFFFFF; stroke-width:0; stroke-opacity:1; 
stroke-linecap:round; stroke-linejoin:round;">
<circle cx="49200" cy="23200" r="196.85" /> 
</g>
<g style="fill:#FFFFFF; fill-opacity:1.0; 
stroke:#FFFFFF; stroke-width:39.3701; stroke-opacity:1; 
stroke-linecap:round; stroke-linejoin:round;">
</g>
<g style="fill:#FFFFFF; fill-opacity:1.0; 
stroke:#FFFFFF; stroke-width:0; stroke-opacity:1; 
stroke-linecap:round; stroke-linejoin:round;">
<circle cx="49200" cy="17294.5" r="196.85" /> 
</g>
<g style="fill:#FFFFFF; fill-opacity:1.0; 
stroke:#FFFFFF; stroke-width:39.3701; stroke-opacity:1; 
stroke-linecap:round; stroke-linejoin:round;">
</g>
<g style="fill:#FFFFFF; fill-opacity:1.0; 
stroke:#FFFFFF; stroke-width:0; stroke-opacity:1; 
stroke-linecap:round; stroke-linejoin:round;">
<circle cx="54900" cy="24500" r="196.85" /> 
</g>
<g style="fill:#FFFFFF; fill-opacity:1.0; 
stroke:#FFFFFF; stroke-width:39.3701; stroke-opacity:1; 
stroke-linecap:round; stroke-linejoin:round;">
</g>
<g style="fill:#FFFFFF; fill-opacity:1.0; 
stroke:#FFFFFF; stroke-width:0; stroke-opacity:1; 
stroke-linecap:round; stroke-linejoin:round;">
<circle cx="60805.5" cy="24500" r="196.85" /> 
</g>
<g style="fill:#FFFFFF; fill-opacity:1.0; 
stroke:#FFFFFF; stroke-width:39.3701; stroke-opacity:1; 
stroke-linecap:round; stroke-linejoin:round;">
</g>
<g style="fill:#FFFFFF; fill-opacity:1.0; 
stroke:#FFFFFF; stroke-width:0; stroke-opacity:1; 
stroke-linecap:round; stroke-linejoin:round;">
<circle cx="57900" cy="16200" r="196.85" /> 
</g>
<g style="fill:#FFFFFF; fill-opacity:1.0; 
stroke:#FFFFFF; stroke-width:39.3701; stroke-opacity:1; 
stroke-linecap:round; stroke-linejoin:round;">
</g>
<g style="fill:#FFFFFF; fill-opacity:1.0; 
stroke:#FFFFFF; stroke-width:0; stroke-opacity:1; 
stroke-linecap:round; stroke-linejoin:round;">
<circle cx="57900" cy="22105.5" r="196.85" /> 
</g>
<g style="fill:#FFFFFF; fill-opacity:1.0; 
stroke:#FFFFFF; stroke-width:39.3701; stroke-opacity:1; 
stroke-linecap:round; stroke-linejoin:round;">
</g>
<g style="fill:#FFFFFF; fill-opacity:1.0; 
stroke:#FFFFFF; stroke-width:0; stroke-opacity:1; 
stroke-linecap:round; stroke-linejoin:round;">
<circle cx="49694.5" cy="15100" r="196.85" /> 
</g>
<g style="fill:#FFFFFF; fill-opacity:1.0; 
stroke:#FFFFFF; stroke-width:39.3701; stroke-opacity:1; 
stroke-linecap:round; stroke-linejoin:round;">
</g>
<g style="fill:#FFFFFF; fill-opacity:1.0; 
stroke:#FFFFFF; stroke-width:0; stroke-opacity:1; 
stroke-linecap:round; stroke-linejoin:round;">
<circle cx="55600" cy="15100" r="196.85" /> 
</g>
<g style="fill:#FFFFFF; fill-opacity:1.0; 
stroke:#FFFFFF; stroke-width:39.3701; stroke-opacity:1; 
stroke-linecap:round; stroke-linejoin:round;">
</g>
<g style="fill:#FFFFFF; fill-opacity:1.0; 
stroke:#FFFFFF; stroke-width:0; stroke-opacity:1; 
stroke-linecap:round; stroke-linejoin:round;">
<circle cx="62800" cy="14294.5" r="196.85" /> 
</g>
<g style="fill:#FFFFFF; fill-opacity:1.0; 
stroke:#FFFFFF; stroke-width:39.3701; stroke-opacity:1; 
stroke-linecap:round; stroke-linejoin:round;">
</g>
<g style="fill:#FFFFFF; fill-opacity:1.0; 
stroke:#FFFFFF; stroke-width:0; stroke-opacity:1; 
stroke-linecap:round; stroke-linejoin:round;">
<circle cx="62800" cy="20200" r="196.85" /> 
</g>
<g style="fill:#FFFFFF; fill-opacity:1.0; 
stroke:#FFFFFF; stroke-width:39.3701; stroke-opacity:1; 
stroke-linecap:round; stroke-linejoin:round;">
</g>
<g style="fill:#FFFFFF; fill-opacity:1.0; 
stroke:#FFFFFF; stroke-width:0; stroke-opacity:1; 
stroke-linecap:round; stroke-linejoin:round;">
<circle cx="51700" cy="22100" r="157.48" /> 
</g>
<g style="fill:#FFFFFF; fill-opacity:1.0; 
stroke:#FFFFFF; stroke-width:39.3701; stroke-opacity:1; 
stroke-linecap:round; stroke-linejoin:round;">
</g>
<g style="fill:#FFFFFF; fill-opacity:1.0; 
stroke:#FFFFFF; stroke-width:0; stroke-opacity:1; 
stroke-linecap:round; stroke-linejoin:round;">
<circle cx="51700" cy="18100" r="157.48" /> 
</g>
<g style="fill:#FFFFFF; fill-opacity:1.0; 
stroke:#FFFFFF; stroke-width:39.3701; stroke-opacity:1; 
stroke-linecap:round; stroke-linejoin:round;">
</g>
<g style="fill:#FFFFFF; fill-opacity:1.0; 
stroke:#FFFFFF; stroke-width:0; stroke-opacity:1; 
stroke-linecap:round; stroke-linejoin:round;">
<circle cx="51800" cy="25100" r="157.48" /> 
</g>
<g style="fill:#FFFFFF; fill-opacity:1.0; 
stroke:#FFFFFF; stroke-width:39.3701; stroke-opacity:1; 
stroke-linecap:round; stroke-linejoin:round;">
</g>
<g style="fill:#FFFFFF; fill-opacity:1.0; 
stroke:#FFFFFF; stroke-width:0; stroke-opacity:1; 
stroke-linecap:round; stroke-linejoin:round;">
<circle cx="47800" cy="25100" r="157.48" /> 
</g>
<g style="fill:#FFFFFF; fill-opacity:1.0; 
stroke:#FFFFFF; stroke-width:39.3701; stroke-opacity:1; 
stroke-linecap:round; stroke-linejoin:round;">
</g>
<g style="fill:#FFFFFF; fill-opacity:1.0; 
stroke:#FFFFFF; stroke-width:0; stroke-opacity:1; 
stroke-linecap:round; stroke-linejoin:round;">
<circle cx="55500" cy="18100" r="157.48" /> 
</g>
<g style="fill:#FFFFFF; fill-opacity:1.0; 
stroke:#FFFFFF; stroke-width:39.3701; stroke-opacity:1; 
stroke-linecap:round; stroke-linejoin:round;">
</g>
<g style="fill:#FFFFFF; fill-opacity:1.0; 
stroke:#FFFFFF; stroke-width:0; stroke-opacity:1; 
stroke-linecap:round; stroke-linejoin:round;">
<circle cx="55500" cy="22100" r="157.48" /> 
</g>
<g style="fill:#FFFFFF; fill-opacity:1.0; 
stroke:#FFFFFF; stroke-width:39.3701; stroke-opacity:1; 
stroke-linecap:round; stroke-linejoin:round;">
</g>
<g style="fill:#FFFFFF; fill-opacity:1.0; 
stroke:#FFFFFF; stroke-width:0; stroke-opacity:1; 
stroke-linecap:round; stroke-linejoin:round;">
<circle cx="53400" cy="25300" r="157.48" /> 
</g>
<g style="fill:#FFFFFF; fill-opacity:1.0; 
stroke:#FFFFFF; stroke-width:39.3701; stroke-opacity:1; 
stroke-linecap:round; stroke-linejoin:round;">
</g>
<g style="fill:#FFFFFF; fill-opacity:1.0; 
stroke:#FFFFFF; stroke-width:0; stroke-opacity:1; 
stroke-linecap:round; stroke-linejoin:round;">
<circle cx="53400" cy="21300" r="157.48" /> 
</g>
<g style="fill:#FFFFFF; fill-opacity:1.0; 
stroke:#FFFFFF; stroke-width:39.3701; stroke-opacity:1; 
stroke-linecap:round; stroke-linejoin:round;">
</g>
<g style="fill:#FFFFFF; fill-opacity:1.0; 
stroke:#FFFFFF; stroke-width:0; stroke-opacity:1; 
stroke-linecap:round; stroke-linejoin:round;">
<circle cx="60300" cy="22100" r="157.48" /> 
</g>
<g style="fill:#FFFFFF; fill-opacity:1.0; 
stroke:#FFFFFF; stroke-width:39.3701; stroke-opacity:1; 
stroke-linecap:round; stroke-linejoin:round;">
</g>
<g style="fill:#FFFFFF; fill-opacity:1.0; 
stroke:#FFFFFF; stroke-width:0; stroke-opacity:1; 
stroke-linecap:round; stroke-linejoin:round;">
<circle cx="60300" cy="18100" r="157.48" /> 
</g>
<g style="fill:#FFFFFF; fill-opacity:1.0; 
stroke:#FFFFFF; stroke-width:39.3701; stroke-opacity:1; 
stroke-linecap:round; stroke-linejoin:round;">
</g>
<g style="fill:#FFFFFF; fill-opacity:1.0; 
stroke:#FFFFFF; stroke-width:0; stroke-opacity:1; 
stroke-linecap:round; stroke-linejoin:round;">
<circle cx="45400" cy="23600" r="299.213" /> 
</g>
<g style="fill:#FFFFFF; fill-opacity:1.0; 
stroke:#FFFFFF; stroke-width:39.3701; stroke-opacity:1; 
stroke-linecap:round; stroke-linejoin:round;">
</g>
<g style="fill:#FFFFFF; fill-opacity:1.0; 
stroke:#FFFFFF; stroke-width:0; stroke-opacity:1; 
stroke-linecap:round; stroke-linejoin:round;">
<circle cx="45400" cy="21600" r="299.213" /> 
</g>
<g style="fill:#FFFFFF; fill-opacity:1.0; 
stroke:#FFFFFF; stroke-width:39.3701; stroke-opacity:1; 
stroke-linecap:round; stroke-linejoin:round;">
</g>
<g style="fill:#FFFFFF; fill-opacity:1.0; 
stroke:#FFFFFF; stroke-width:0; stroke-opacity:1; 
stroke-linecap:round; stroke-linejoin:round;">
<circle cx="45400" cy="17900" r="299.213" /> 
</g>
<g style="fill:#FFFFFF; fill-opacity:1.0; 
stroke:#FFFFFF; stroke-width:39.3701; stroke-opacity:1; 
stroke-linecap:round; stroke-linejoin:round;">
</g>
<g style="fill:#FFFFFF; fill-opacity:1.0; 
stroke:#FFFFFF; stroke-width:0; stroke-opacity:1; 
stroke-linecap:round; stroke-linejoin:round;">
<circle cx="45400" cy="15900" r="299.213" /> 
</g>
<g style="fill:#FFFFFF; fill-opacity:1.0; 
stroke:#FFFFFF; stroke-width:39.3701; stroke-opacity:1; 
stroke-linecap:round; stroke-linejoin:round;">
</g>
<g style="fill:#FFFFFF; fill-opacity:1.0; 
stroke:#FFFFFF; stroke-width:0; stroke-opacity:1; 
stroke-linecap:round; stroke-linejoin:round;">
<circle cx="63400" cy="24500" r="299.213" /> 
</g>
<g style="fill:#FFFFFF; fill-opacity:1.0; 
stroke:#FFFFFF; stroke-width:39.3701; stroke-opacity:1; 
stroke-linecap:round; stroke-linejoin:round;">
</g>
<g style="fill:#FFFFFF; fill-opacity:1.0; 
stroke:#FFFFFF; stroke-width:0; stroke-opacity:1; 
stroke-linecap:round; stroke-linejoin:round;">
<circle cx="63400" cy="22500" r="299.213" /> 
</g>
<g style="fill:#FFFFFF; fill-opacity:1.0; 
stroke:#FFFFFF; stroke-width:39.3701; stroke-opacity:1; 
stroke-linecap:round; stroke-linejoin:round;">
</g>
<g style="fill:#FFFFFF; fill-opacity:1.0; 
stroke:#FFFFFF; stroke-width:0; stroke-opacity:1; 
stroke-linecap:round; stroke-linejoin:round;">
<circle cx="53500" cy="18400" r="147.638" /> 
</g>
<g style="fill:#FFFFFF; fill-opacity:1.0; 
stroke:#FFFFFF; stroke-width:39.3701; stroke-opacity:1; 
stroke-linecap:round; stroke-linejoin:round;">
</g>
<g style="fill:#FFFFFF; fill-opacity:1.0; 
stroke:#FFFFFF; stroke-width:0; stroke-opacity:1; 
stroke-linecap:round; stroke-linejoin:round;">
<circle cx="53500" cy="19400" r="147.638" /> 
</g>
<g style="fill:#FFFFFF; fill-opacity:1.0; 
stroke:#FFFFFF; stroke-width:39.3701; stroke-opacity:1; 
stroke-linecap:round; stroke-linejoin:round;">
</g>
<g style="fill:#FFFFFF; fill-opacity:1.0; 
stroke:#FFFFFF; stroke-width:0; stroke-opacity:1; 
stroke-linecap:round; stroke-linejoin:round;">
<circle cx="53500" cy="18900" r="147.638" /> 
</g>
<g style="fill:#FFFFFF; fill-opacity:1.0; 
stroke:#FFFFFF; stroke-width:39.3701; stroke-opacity:1; 
stroke-linecap:round; stroke-linejoin:round;">
</g>
<g style="fill:#FFFFFF; fill-opacity:1.0; 
stroke:#FFFFFF; stroke-width:0; stroke-opacity:1; 
stroke-linecap:round; stroke-linejoin:round;">
<circle cx="60400" cy="15900" r="147.638" /> 
</g>
<g style="fill:#FFFFFF; fill-opacity:1.0; 
stroke:#FFFFFF; stroke-width:39.3701; stroke-opacity:1; 
stroke-linecap:round; stroke-linejoin:round;">
</g>
<g style="fill:#FFFFFF; fill-opacity:1.0; 
stroke:#FFFFFF; stroke-width:0; stroke-opacity:1; 
stroke-linecap:round; stroke-linejoin:round;">
<circle cx="60400" cy="15400" r="147.638" /> 
</g>
<g style="fill:#FFFFFF; fill-opacity:1.0; 
stroke:#FFFFFF; stroke-width:39.3701; stroke-opacity:1; 
stroke-linecap:round; stroke-linejoin:round;">
</g>
<g style="fill:#FFFFFF; fill-opacity:1.0; 
stroke:#FFFFFF; stroke-width:0; stroke-opacity:1; 
stroke-linecap:round; stroke-linejoin:round;">
<circle cx="60400" cy="16400" r="147.638" /> 
</g>
<g style="fill:#FFFFFF; fill-opacity:1.0; 
stroke:#FFFFFF; stroke-width:39.3701; stroke-opacity:1; 
stroke-linecap:round; stroke-linejoin:round;">
</g>
<g style="fill:#000000; fill-opacity:1.0; 
stroke:#000000; stroke-width:39.3701; stroke-opacity:1; 
stroke-linecap:round; stroke-linejoin:round;">
</g>
<g style="fill:#C2C200; fill-opacity:1.0; 
stroke:#C2C200; stroke-width:39.3701; stroke-opacity:1; 
stroke-linecap:round; stroke-linejoin:round;">
</g>
<g style="fill:#C2C200; fill-opacity:1.0; 
stroke:#C2C200; stroke-width:19.685; stroke-opacity:1; 
stroke-linecap:round; stroke-linejoin:round;">
</g>
<g style="fill:#C2C200; fill-opacity:0.0; 
stroke:#C2C200; stroke-width:19.685; stroke-opacity:1; 
stroke-linecap:round; stroke-linejoin:round;">
<path d="M42900 26200
L42900 14000
" />
<path d="M65400 26800
L43500 26800
" />
<path d="M66000 14000
L66000 26200
" />
<path d="M43500 13400
L65400 13400
" />
<path d="M43500 13400 A600 600 0.0 0 0 42900 14000" />
<path d="M42900 26200 A600 600 0.0 0 0 43500 26800" />
<path d="M65400 26800 A600 600 0.0 0 0 66000 26200" />
<path d="M66000 14000 A600 600 0.0 0 0 65400 13400" />
<g >
</g>
<g >
</g>
<g >
</g>
<g >
</g>
<g >
</g>
<g >
</g>
<g >
</g>
<g >
</g>
<g >
</g>
<g >
</g>
<g >
</g>
<g >
</g>
<g >
</g>
<g >
</g>
<g >
</g>
<g >
</g>
</g> 
</svg>
